<svg role="img" viewBox="0 0 24 24" xmlns="http://www.w3.org/2000/svg"><title>Microsoft Teams</title><path fill="#3f434a" d="M10.5 11.336a1 1 0 00-.868.57c-.14.325-.181.685-.181 1.06s.04.736.18 1.06a1 1 0 00.869.57h2.181v4.895c0 .641-.52 1.161-1.162 1.161H.464A.463.463 0 010 20.188V9.761c0-.255.207-.463.463-.463H11.52c.641 0 1.161.52 1.161 1.162v.876H10.5zm5.974.304a3.724 3.724 0 100 7.448 3.724 3.724 0 000-7.449zm0-8.325a2.566 2.566 0 100 5.131 2.566 2.566 0 000-5.131zm6.366 8.777V17.4a2.828 2.828 0 01-2.829 2.828h-2.322v-1.957a4.65 4.65 0 001.54-6.978 4.651 4.651 0 00-1.54-1.385V8.363h2.07a3.08 3.08 0 013.08 3.08v.649zM20.042 6.58v.855a3.95 3.95 0 00-1.982.585v-.123a1.54 1.54 0 011.54-1.54h.442a2.814 2.814 0 01-.049.222zM14.536 0h8.992c.256 0 .464.207.464.463v7.295a.463.463 0 01-.244.407 3.95 3.95 0 00-1.993-.73 2.815 2.815 0 00.048-.222V2.324h-7.267a.463.463 0 01-.463-.463V.463c0-.256.207-.463.463-.463z"/></svg>
