<svg width="33" height="32" viewBox="0 0 33 32" fill="none" xmlns="http://www.w3.org/2000/svg">
<path d="M20.4729 10.4666L20.4607 10.4272C20.4513 10.3953 20.4419 10.3633 20.4306 10.3324L17.4712 1.03355C17.1801 0.120003 15.8873 0.120003 15.5971 1.03355L12.6377 10.3324C12.6265 10.3633 12.6161 10.3953 12.6077 10.4272L12.5955 10.4666C12.5551 10.5934 12.542 10.7201 12.5514 10.8422C12.5532 11.1267 12.6368 11.4177 12.8208 11.6825L15.3023 15.2681C15.8985 16.13 17.1717 16.13 17.7679 15.2681L20.2494 11.6825C20.4325 11.4177 20.517 11.1267 20.5189 10.8422C20.5283 10.7201 20.5151 10.5934 20.4747 10.4666H20.4729Z" fill="#FC931E"/>
<path d="M14.6168 15.7226L11.9775 12.2515C11.7822 11.9952 11.5315 11.8243 11.2621 11.7352C11.1485 11.6882 11.0245 11.6619 10.8912 11.661H10.849C10.8161 11.6591 10.7832 11.6591 10.7504 11.66L0.992375 11.5896C0.0337576 11.5831 -0.367153 12.8121 0.411196 13.3716L8.3327 19.0698C8.35899 19.0904 8.38622 19.1092 8.41345 19.128L8.44725 19.1524C8.55522 19.2294 8.67165 19.282 8.79089 19.3111C9.06129 19.3975 9.36455 19.4078 9.67345 19.3158L13.8516 18.0689C14.8552 17.7694 15.2505 16.5583 14.6168 15.7245V15.7226Z" fill="#23ACB8"/>
<path d="M14.1727 18.7687L10.0528 20.1977C9.74855 20.3038 9.50819 20.4887 9.33919 20.7169C9.25938 20.8098 9.19554 20.9197 9.15329 21.0455L9.14014 21.0849C9.12888 21.1159 9.11761 21.1478 9.10822 21.1788L6.00797 30.4316C5.70377 31.3405 6.74689 32.1038 7.52054 31.5386L15.3989 25.7803C15.4261 25.7615 15.4533 25.7418 15.4796 25.7212L15.5134 25.6968C15.6204 25.6188 15.7059 25.524 15.7707 25.4198C15.9368 25.1898 16.0411 24.9053 16.0495 24.5832L16.1631 20.2239C16.1903 19.1761 15.1623 18.425 14.1727 18.7677V18.7687Z" fill="#8685E7"/>
<path d="M18.4344 15.7226L21.0737 12.2515C21.2689 11.9952 21.5196 11.8243 21.7891 11.7352C21.9027 11.6882 22.0266 11.6619 22.16 11.661H22.2022C22.2351 11.6591 22.2679 11.6591 22.3008 11.66L32.0588 11.5896C33.0174 11.5831 33.4183 12.8121 32.64 13.3716L24.7185 19.0698C24.6922 19.0904 24.6649 19.1092 24.6377 19.128L24.6039 19.1524C24.4959 19.2294 24.3795 19.282 24.2603 19.3111C23.9899 19.3975 23.6866 19.4078 23.3777 19.3158L19.1996 18.0689C18.1959 17.7694 17.8006 16.5583 18.4344 15.7245V15.7226Z" fill="#F77461"/>
<path d="M18.8786 18.7687L22.9985 20.1977C23.3027 20.3038 23.543 20.4887 23.712 20.7169C23.7918 20.8098 23.8557 20.9197 23.8979 21.0455L23.9111 21.0849C23.9223 21.1159 23.9336 21.1478 23.943 21.1788L27.0433 30.4316C27.3475 31.3405 26.3043 32.1038 25.5307 31.5386L17.6524 25.7803C17.6251 25.7615 17.5979 25.7418 17.5716 25.7212L17.5378 25.6968C17.4308 25.6188 17.3453 25.524 17.2806 25.4198C17.1144 25.1898 17.0102 24.9053 17.0017 24.5832L16.8881 20.2239C16.8609 19.1761 17.889 18.425 18.8786 18.7677V18.7687Z" fill="#CF64BB"/>
</svg>
