<?xml version="1.0" encoding="UTF-8"?>
<svg id="Layer_1" xmlns="http://www.w3.org/2000/svg" version="1.1" viewBox="0 0 220.4 58.5">
  <!-- Generator: Adobe Illustrator 29.6.1, SVG Export Plug-In . SVG Version: 2.1.1 Build 9)  -->
  <defs>
    <style>
      .st0 {
        fill: #00245b;
      }

      .st1, .st2 {
        fill-rule: evenodd;
      }

      .st1, .st3 {
        fill: #008ad8;
      }

      .st2 {
        fill: #00b0a5;
      }

      .st4 {
        fill: #b4d6f1;
      }
    </style>
  </defs>
  <g id="Group_5374">
    <g id="Group_5371">
      <path id="Path_15573" class="st0" d="M66.1,6.4h5.7l.9,21.7h0l9.4-21.7h7.6v21.7h.2l10-21.7h5.9l-13.5,28.3h-7.1l-.3-22.6h0l-10,22.6h-7l-1.8-28.3Z"/>
      <path id="Path_15574" class="st0" d="M108.1,26c0,1.9.5,3.3,1.5,4.1,1.3.9,2.8,1.3,4.3,1.2,1.1,0,2.2-.1,3.3-.4,1.1-.3,2.1-.6,3.1-1.1l-.7,4.3c-1.1.3-2.1.6-3.3.8-1.1.2-2.2.3-3.4.3-1.4,0-2.8-.2-4.1-.5-1.2-.3-2.2-.9-3.2-1.7-.9-.8-1.6-1.8-2-2.9-.5-1.3-.8-2.7-.7-4,0-1.6.3-3.2.9-4.7.6-1.5,1.4-2.9,2.5-4.1,1.1-1.2,2.3-2.2,3.8-2.9,1.5-.7,3.1-1.1,4.7-1.1,1.2,0,2.4.1,3.5.5,1,.3,1.9.8,2.7,1.5.8.7,1.4,1.5,1.7,2.5.4,1.1.6,2.3.6,3.5,0,.8,0,1.6-.1,2.3,0,.8-.2,1.5-.4,2.3h-14.7ZM118,22.3c0-.5.1-.9.1-1.4,0-.9-.2-1.9-.9-2.6-.7-.6-1.6-1-2.6-.9-1.4-.1-2.8.4-3.8,1.4-.9,1-1.6,2.2-2.1,3.5h9.2Z"/>
      <path id="Path_15575" class="st0" d="M140.8,18.3c-.7-.3-1.4-.5-2.2-.7-.7-.2-1.5-.3-2.3-.3-.4,0-.8,0-1.3.1-.4,0-.8.2-1.2.3-.3.1-.6.4-.9.6-.2.3-.4.6-.3,1,0,.5.2.9.5,1.2.4.4.8.8,1.3,1.1.5.4,1.1.7,1.7,1.1.6.4,1.2.8,1.7,1.3.5.5,1,1.1,1.3,1.7.4.7.5,1.5.5,2.2,0,1.2-.2,2.4-.8,3.4-.5.9-1.3,1.6-2.1,2.2-.9.6-2,.9-3,1.2-1.1.2-2.3.3-3.4.3-1.1,0-2.2,0-3.3-.3-1.1-.2-2.1-.5-3.1-1l1.2-4.3c.8.4,1.6.8,2.4,1.1,1.3.5,2.8.6,4.2.4.4,0,.8-.2,1.2-.4.3-.2.6-.4.9-.7.2-.3.3-.7.3-1.1,0-.5-.2-1.1-.5-1.5-.4-.4-.8-.8-1.3-1.2-.5-.4-1.1-.7-1.7-1.1-.6-.4-1.2-.8-1.7-1.3-.5-.5-1-1-1.3-1.6-.4-.7-.5-1.5-.5-2.2,0-1.1.2-2.2.8-3.1.5-.8,1.3-1.6,2.1-2.1.9-.5,1.9-.9,2.9-1.1,1.1-.2,2.1-.3,3.2-.3,1,0,2,0,3,.2,1,.2,2,.4,2.9.6l-1.2,4.1Z"/>
      <path id="Path_15576" class="st0" d="M145.1,13.9h3.9l.9-4.3,5.8-1.9-1.3,6.2h4.9l-.9,4h-4.9l-2,9.1c0,.2-.1.5-.2.9,0,.4,0,.8,0,1.1,0,.6.2,1.1.6,1.5.4.4.9.6,1.5.5.5,0,1,0,1.4-.1.4,0,.8-.2,1.2-.3l-.9,4.2c-.5.1-.9.2-1.5.3-.5.1-1,.2-1.5.2-.9,0-1.7,0-2.5-.3-.7-.2-1.4-.5-2-.9-.6-.4-1-1-1.3-1.7-.3-.8-.5-1.7-.5-2.6,0-.8,0-1.6.2-2.4.1-.8.3-1.6.5-2.5l1.5-7.1h-3.9l.9-4Z"/>
      <path id="Path_15577" class="st0" d="M164.4,26c0,1.9.5,3.3,1.5,4.1,1.3.9,2.8,1.3,4.3,1.2,1.1,0,2.2-.1,3.3-.4,1.1-.3,2.1-.6,3.1-1.1l-.7,4.3c-1.1.3-2.1.6-3.3.8-1.1.2-2.2.3-3.4.3-1.4,0-2.8-.2-4.1-.5-1.2-.3-2.2-.9-3.2-1.7-.9-.8-1.6-1.8-2-2.9-.5-1.3-.8-2.7-.7-4,0-1.6.3-3.2.9-4.7.6-1.5,1.4-2.9,2.5-4.1,1.1-1.2,2.3-2.2,3.8-2.9,1.5-.7,3.1-1.1,4.7-1.1,1.2,0,2.4.1,3.5.5,1,.3,1.9.8,2.7,1.5.8.7,1.4,1.5,1.7,2.5.4,1.1.6,2.3.6,3.5,0,.8,0,1.6-.1,2.3,0,.8-.2,1.5-.4,2.3h-14.7ZM174.3,22.3c0-.5.1-.9.1-1.4,0-.9-.2-1.9-.9-2.6-.7-.6-1.6-1-2.6-.9-1.4-.1-2.8.4-3.8,1.4-.9,1-1.6,2.2-2.1,3.5h9.2Z"/>
      <path id="Path_15578" class="st0" d="M185,16.7c.2-.9.3-1.8.5-2.8h5.2l-.7,3.9h0c.3-.6.6-1.1,1-1.6.4-.5.9-1,1.5-1.4.5-.4,1.1-.7,1.8-1,.6-.2,1.2-.4,1.9-.4.4,0,.7,0,1.1,0,.3,0,.7,0,1,.2l-1.1,5.3c-.7-.2-1.4-.3-2.1-.3-.9,0-1.8.2-2.5.6-.7.4-1.3.9-1.8,1.6-.5.7-1,1.4-1.3,2.2-.3.8-.6,1.6-.8,2.5l-1.9,9.4h-5.4l3.7-18.1Z"/>
      <path id="Path_15579" class="st0" d="M200.9,16.9c.1-.6.2-1.2.3-1.7s.1-1,.2-1.3h5.3l-.4,2h0c.8-.7,1.7-1.3,2.6-1.8,1-.5,2.1-.7,3.3-.7,1.8,0,3.6.6,4.9,1.8,1.3,1.3,2,3.1,1.9,4.9,0,.8,0,1.6-.2,2.4-.2.8-.3,1.5-.4,2.2l-2.2,10.1h-5.4l2-9.9c.1-.7.3-1.4.4-2.1.1-.7.2-1.5.2-2.2,0-.8-.3-1.6-.8-2.1-.6-.5-1.3-.8-2.1-.8-.8,0-1.7.2-2.4.6-.7.4-1.2.9-1.7,1.6-.5.7-.8,1.4-1.1,2.1-.3.8-.5,1.6-.7,2.4l-2.2,10.5h-5.4l3.9-17.9Z"/>
      <path id="Path_15580" class="st0" d="M67.8,41.6h5.2l-.3,1.5h-3.3l-.5,2.3h3.2l-.3,1.5h-3.2l-.9,4.2h-1.9l2-9.5Z"/>
      <path id="Path_15581" class="st0" d="M76.8,41.6h2l-2,9.5h-2l2-9.5Z"/>
      <path id="Path_15582" class="st0" d="M83.1,41.6h2.4l2,7.2h0l1.6-7.2h1.8l-2.1,9.5h-2.4l-2-7.3h0l-1.5,7.3h-1.8l2-9.5Z"/>
      <path id="Path_15583" class="st0" d="M98.1,41.6h2.1l1.7,9.5h-1.9l-.3-2.2h-4l-1.2,2.2h-2.1l5.8-9.5ZM96.5,47.4h2.9l-.6-4.1h0l-2.3,4.1Z"/>
      <path id="Path_15584" class="st0" d="M107.5,41.6h2.4l2,7.2h0l1.6-7.2h1.8l-2.1,9.5h-2.4l-2-7.3h0l-1.5,7.3h-1.8l2-9.5Z"/>
      <path id="Path_15585" class="st0" d="M126,43.5c-.3-.2-.6-.3-.9-.4-.4-.1-.9-.2-1.3-.2-.5,0-1,0-1.4.3-.4.2-.8.5-1.1.8-.3.3-.6.8-.7,1.2-.2.5-.3,1-.3,1.5,0,.4,0,.8.2,1.1.1.3.3.7.5,1,.5.6,1.2.9,2,.9.4,0,.7,0,1.1-.2.3-.1.6-.2.9-.4l-.3,1.8c-.3,0-.7.2-1.1.2-.4,0-.7,0-1.1,0-.6,0-1.3-.1-1.9-.3-.5-.2-1-.5-1.3-.9-.4-.4-.6-.9-.8-1.4-.2-.6-.3-1.2-.3-1.8,0-.7.1-1.4.4-2.1.2-.6.6-1.2,1.1-1.7.5-.5,1.1-.9,1.7-1.1.7-.3,1.5-.4,2.3-.4.5,0,1,0,1.4,0,.5,0,.9.2,1.3.4l-.5,1.6Z"/>
      <path id="Path_15586" class="st0" d="M130.2,41.6h2l-2,9.5h-2l2-9.5Z"/>
      <path id="Path_15587" class="st0" d="M139.3,41.6h2.1l1.7,9.5h-1.9l-.3-2.2h-4l-1.2,2.2h-2.1l5.8-9.5ZM137.7,47.4h2.9l-.6-4.1h0l-2.3,4.1Z"/>
      <path id="Path_15588" class="st0" d="M148.6,41.6h1.9l-1.7,8h3.7l-.3,1.5h-5.6l2-9.5Z"/>
      <path id="Path_15589" class="st0" d="M171,43.6c-.4-.2-.8-.4-1.2-.5-.5-.1-.9-.2-1.4-.2-.5,0-1.1.1-1.6.3-.5.2-.9.5-1.2.9-.3.4-.6.8-.8,1.3-.2.5-.3,1-.3,1.6,0,.4,0,.7.2,1.1.2.7.7,1.2,1.4,1.5.3.1.7.2,1.1.2.2,0,.4,0,.6,0,.1,0,.3,0,.4,0l.5-2.5h-2l.3-1.5h3.8l-1.1,5.2c-.2,0-.3.1-.5.2-.2,0-.4.1-.6.1-.2,0-.5,0-.7,0-.2,0-.5,0-.7,0-.6,0-1.3,0-1.9-.2-.5-.1-1-.4-1.5-.8-.4-.4-.7-.8-.9-1.3-.2-.6-.3-1.3-.3-1.9,0-.8.1-1.6.4-2.3.3-.7.6-1.3,1.2-1.8.5-.5,1.1-.9,1.8-1.1.8-.3,1.5-.4,2.3-.4.5,0,1.1,0,1.6.1.5,0,1.1.2,1.6.4l-.5,1.7Z"/>
      <path id="Path_15590" class="st0" d="M176.1,41.6h2.2c.4,0,.9,0,1.3,0,.4,0,.8,0,1.2.2.4.1.7.4.9.7.3.4.4.8.3,1.3,0,.4,0,.7-.2,1.1-.1.3-.3.6-.6.8-.3.2-.6.4-.9.5-.4.1-.7.2-1.1.2h0c.2,0,.5.1.6.3.2.2.3.4.3.6l.9,3.8h-2l-.5-2.2c0-.3-.1-.5-.1-.7,0-.2,0-.4-.2-.5,0-.1-.2-.3-.3-.4-.2,0-.4-.1-.6-.1h-.7l-.8,3.9h-1.9l2-9.5ZM177.1,45.7h.7c.3,0,.5,0,.8,0,.3,0,.5-.1.7-.2.2-.1.4-.3.5-.5.1-.2.2-.5.2-.8,0-.2,0-.4-.1-.6,0-.1-.2-.2-.4-.3-.2,0-.3-.1-.5-.1-.2,0-.4,0-.6,0h-.8l-.5,2.6Z"/>
      <path id="Path_15591" class="st0" d="M193.8,42.5c.7.8,1.1,1.9,1,3,0,.8-.1,1.5-.4,2.3-.3.7-.7,1.4-1.2,1.9-.5.5-1.1,1-1.8,1.2-.7.3-1.5.4-2.2.4-.5,0-1.1,0-1.6-.3-.4-.2-.8-.5-1.2-.8-.3-.4-.6-.8-.7-1.3-.2-.5-.3-1-.3-1.6,0-.7.1-1.5.4-2.2.3-.7.6-1.3,1.1-1.9,1-1.1,2.4-1.8,3.9-1.8,1.1,0,2.2.3,3,1.1M189.3,43.4c-.4.3-.8.7-1.1,1.1-.3.4-.5.9-.6,1.5-.1.5-.2,1-.2,1.5,0,.3,0,.6.1.9,0,.3.2.5.4.7.2.2.4.4.6.5.3.1.6.2.9.2.5,0,1-.1,1.4-.4.4-.3.8-.7,1.1-1.1.3-.5.5-.9.7-1.5.1-.5.2-1,.2-1.5,0-.3,0-.6-.1-.9,0-.3-.2-.5-.4-.7-.2-.2-.4-.4-.6-.5-.3-.1-.6-.2-.9-.2-.5,0-1,.1-1.5.4"/>
      <path id="Path_15592" class="st0" d="M201.7,41.6l-1,4.5c0,.3-.1.6-.2.9,0,.3,0,.6-.1,1,0,.2,0,.5,0,.7,0,.2.1.4.2.6.1.2.3.3.5.4.2.1.5.2.8.1.4,0,.8,0,1.2-.3.3-.2.6-.5.7-.8.2-.3.3-.7.4-1.1.1-.4.2-.8.3-1.2l1-4.8h1.9l-1.3,5.7c-.1.6-.3,1.1-.5,1.6-.2.5-.5.9-.8,1.2-.4.3-.8.6-1.2.8-.6.2-1.1.3-1.7.3-.5,0-1.1,0-1.6-.2-.4-.1-.8-.3-1.1-.6-.3-.3-.5-.6-.6-.9-.1-.4-.2-.8-.2-1.3,0-.5,0-1,.2-1.5l1.1-5.2h1.9Z"/>
      <path id="Path_15593" class="st0" d="M211.8,51.1h-1.9l2-9.5h1.6c.4,0,.9,0,1.4,0,.5,0,.9.1,1.4.3.4.1.8.4,1,.7.3.4.4.9.4,1.4,0,.5-.1,1-.3,1.5-.2.4-.5.8-.9,1.1-.4.3-.8.5-1.3.6-.5.1-1,.2-1.5.2h-1.1l-.8,3.6ZM212.9,46h.7c.3,0,.5,0,.8,0,.2,0,.5-.2.7-.3.2-.1.4-.3.5-.5.1-.2.2-.5.2-.8,0-.2,0-.4-.1-.6,0-.1-.2-.3-.4-.4-.2,0-.3-.2-.5-.2-.2,0-.4,0-.6,0h-.6l-.6,2.9Z"/>
    </g>
    <g id="Group_5372">
      <path id="Path_15569" class="st2" d="M38.6,56.1l-.5.3h-.4c0,0-.4.3-.4.3l-.8.5-.4.2h-.4c0,0-.3.4-.3.4l-.4.3-.4.2h-.4c0,.1-.9.3-.9.3h-1s-1.1-.4-1.1-.4l-1.2-.4-1.1-.5-.5-.3-.5-.3h.6c0,0,.5-.3.5-.3l.5-.3.4-.4.8-.9.4-.4.5-.4-1.5-.8-.8-.4-.8-.3-1.9-.9-1-.4-1-.4-1-.2-1.1-.2h-2.1c0,.1-1,.2-1,.2h-1s-1,0-1,0h-1c0-.1-.9-.3-.9-.3l-.9-.3-.8-.4-.8-.5-1-1-1.1-.9-1-.9-.5-.5-.4-.6,2.7-.5,1.3-.2,1.3-.2,1.4-.2h1.3c0,0,1.4,0,1.4,0h1.3c0,.1.4.1.4.1h.4c0,0,.7.3.7.3l.7.2h.4c0,0,.4,0,.4,0l.7.3.8.2.7.3.3.2.3.2,1.1.5,1,.6,1,.8.9.9.4.5.4.5,1,.9,1,.9.9.9h.4c0,0,.4-.3.4-.3l.8-.4.7-.4.8-.4,5.5-2.5h.3c0,.1.4,0,.4,0h.4c0,0,.4-.2.4-.2l.3-.4h.1c0,0,0-.1,0-.1h.1s0,.2,0,.2l.5-.2.5-.2h.5c0-.1.5-.2.5-.2h1.1c0-.1,1.1-.2,1.1-.2h1.3c0,0,1.3.3,1.3.3l1.3.3,1.3.4.2.3-.3.2h-.3c0,0-.3.2-.3.2h0c0,0,0,.2,0,.2h0c0,0,0-.1,0-.1h0l-.2.3h0c0,0,0,.2,0,.2h0c0-.1-.1-.2-.1-.2h-.2c0,.1,0,.2,0,.2h-.1c0,0-.1,0-.1,0h-.2c0-.1,0,0,0,0l-.2.2h-.2c0,0-.2.1-.2.1l-.5.3-.5.3-.5.3h-.3c0,0-.3,0-.3,0l-.2.2h-.3c0,.1-.7.3-.7.3h-.3c0,0-.3.2-.3.2l-.3.2-.2.3h-.5c0,0-.2.2-.2.2l-.2.2-.2.2-.2.2h-.3c0,0-.3,0-.3,0l-.2.2h0c0,0-.1.2-.1.2l-.2-.2-.3.3-.3.2-.8.4-.8.4-.3.2-.3.3h-.3c0,0-.3.2-.3.2l-.3.2h0c0,0,0,.2,0,.2h-.3c0,0,0,.3,0,.3l-.2.2h-.2c0,0-.2.3-.2.3l-.2.2h0Z"/>
      <path id="Path_15570" class="st1" d="M57.6,33.1c0,0-.2-.3-.3-.4-.2.2-.3.5-.4.8-.5-.4-2.9,1.6-3.8,2.1-2.3,1.5-4.9,3.8-7.4,4.7-1.3.5-.9,1.3,0,2.5.7,1.2,1.4,1.5,2.5,1,.6-.3,1.2-.7,1.8-1.1.6-.6,1.8-2.2,2.5-2.3,0,0,1-1.5,1.2-1.3.6-.6,1.1-1.2,1.6-1.9h0c0-.2,0-.5.4-.7,0-.3.2-.6.4-.9.6-.2.7-1,1.2-1.5-.4-.4-.2-.7.3-1"/>
      <path id="Path_15571" class="st3" d="M22.1,35.4h0s0,0,0,0h0c0,0,0,0,0,0h0,0v-.2c-.1,0-.2,0-.1-.2h0s0,0,0,0h0c-.8-1.7-1.5-3.4-2-5.2,0-.3-.2-.6-.4-.9,0,0-.1,0-.2,0,0-.1-.1-.2-.5-.1-.6.2-1,1.1-1.7,1.5-1.2.6-2.4,1.3-3.5,2-1.9,1.2-3.8,2.3-5.8,3.4-.7.4-4.2,1.8-4.2,2.3-1.1-.2.3,1.5.4,1.9.5.7,2.4,2.5,3.3,2.3.6,0,.9.2,1.5,0,1.5-.5,2.8-1.5,3.6-2.8.4-.5.8-.4,1.2-.9.5-.6.8-1.3,1.2-1.8.7-.8,1.3-1.7,1.8-2.7.2-.5.7-.6.9-1.1.2-.4-.4-1.1.3-1.3.4-.3.8-.6,1-1,0,.1,0,.3,0,.4-.2.7.4.9.5,1.4.3,1,.9,1.9,1.6,2.7.1.2.1.5.4.6,0,0,0,0,.1,0h0c0,.2.2.1.2.2,0,0,0,.2,0,.2.1,0,.3.1.4.2h0s0,0,0,0c0,0,0-.2,0-.2-.1-.2-.2-.4-.3-.5"/>
      <path id="Path_15572" class="st3" d="M43.9,37.6h0s0-.3,0-.3c0,0,0,0,0,0h0s0,0,0,0c0-.2-.3-.3-.2-.4h0c-.8-2-2.1-3.9-2.6-6.1-.1-.6-.7-1.4-1.4-1,.3-.3.4-.7.3-1.1-.4.6-1.4,1.8-1.7,1.3-3.3,1.7-6.4,4.8-9.7,6.7-1.1.7-4.4,1.9-3.9,3.1,4.5,10.2,8-.2,11.3-4.7-.1,0-.3,0-.4,0,1.1-1.1,1.9-2.4,2.5-3.8,0,.1,0,.3,0,.5.2-.3.5-.7.7-1,0,.1,0,.4,0,.5.1,0,.6.1.3.7-.5.8.5,1.1.6,1.7.7,1.5,1.7,2.8,2.9,3.9,0,0,0,.2.2.2h.1c.3.1.5,0,.4.3.1.2.6.3.8.5.3-.4-.2-.6-.3-.9"/>
      <path id="Path_15594" class="st4" d="M56.9,20.6l-.7-.2-1.4-.6-1.3-.8-1.3-.8-.7-.4c0,0,.2-.1.3-.2-.4-.1-.8-.3-1.1-.4-.7-.2-.8-.6-.5-1.1.3-.4.5-.8.8-1.3.7-1.1,1.5-2.2,2.2-3.3-.3,0-.4,0-.6,0-1.6.2-3.1.4-4.7.6-1.4.2-1.7,0-2-.8-.2-.6-.5-1.2-.8-1.9l-3.2,2c-1,.6-2,1.3-3,1.9h-.5c0,0-1.7-.2-1.7-.2,0,0,0-.1,0-.2-.1,0,0-.8.1-1.2.5-.8.6-.6.8-.6l.6-1.1v-.3h.1c0-.1.1-.2.2-.3h0s0,0,0,0l.6-1.2h-.1c.1-.5.4-1.1.9-1.5l.9-1.7v-.2s.1,0,.1,0l.2-.4c0-.1,0-.2,0-.3-1.5.5-2.8,1-4.1,1.5-1.1.4-1.5.3-1.9-.3-.5-.8-.9-1.6-1.3-2.4-.6-1-1.1-2.1-1.7-3.1-1.7,1.8-3.3,3.5-5,5.2-1,1-1.4,1.1-2.7.5-1-.5-2.1-.9-3.2-1.4,0,.4,0,.7.1,1.1,0,0,0,0,.1.1,0,0,0,0-.1,0,0,.6.1,1.2.2,1.8,0,0,0,0,0,0,0,0,0,0,0,0,0,.5.1,1,.2,1.4,0,.2.2.5.3.7,0-.1-.1-.2-.2-.2h0s0,.1,0,.1c0,.1,0,.2,0,.2v.5c.1,0,.2-.2.4,0,0,.4-.2.2-.3.2,0,0,0,0,0,.1l.5.5c0,.1,0,.2-.2.3.2.2.4.4.3.7v-.6c-.1,0-.3.3-.3.3l.4.6c0,.5-.2.7-.4.7h0c0,0,0,.1,0,.2h-.4s-.1.2-.1.2h-.2c0,.1-.2.1-.2.1h-.7s-.2,0-.2,0h-.2c0,0-.1,0-.1,0-.1-.1-.3-.2-.4-.3l-4.3-3.7c-.6.7-1.1,1.3-1.6,1.9-.6.8-.9.9-2.1.8-.2,0-.4,0-.6,0l-4.6-.7c0,.2,0,.3,0,.4.3,1.3.7,2.7,1,4,0,0,0,.1,0,.2h-.5c0,.1-.5.2-.5.2l-.6.2h-.1c0,0-.1.2-.1.2l-.2.2-.2.2h-.1s-.2,0-.2,0h-.1c0,0,0,0,0,0h0s0,0,0,0h-.1c0,.1,0,.2,0,.2h-.1s-.2,0-.2,0h-.1s-.2-.1-.2-.1l-.5.3-.5.2h0c0,.1,0,.2,0,.2h-.4c0,.1-.5.2-.5.2h-.4c0,0-.2.2-.2.2h-.2c0,.1,0,.3,0,.3v.5c.1,0,.4.4.4.4l.2.4v.2c0,0,0,.2,0,.2v.2s-.2.2-.2.2l.3.5.2.5.2.5.2.2.2.3h.3c0,0,.2.3.2.3l.2.2.2.2h0s0,0,0,0h.1s0-.1,0-.1h.5c0,.1.2.2.2.2l.2.2.4-.5h.2s0,0,0,0h0s0,0,0,0h0s0,0,0,0h.1s0,0,0,0h.1c0,0,0,.2,0,.2h0c0-.1,0-.2,0-.2h.3c0-.1.3-.1.3-.1h.3c0,0,.1,0,.1,0h0c0,.1,0,.3,0,.3h0s0,0,0,0h0s0-.1,0-.1h0c0-.1,0-.2,0-.2h.2s.1,0,.1,0l.2-.2.2-.2h.1c0,0,.2,0,.2,0h0c0-.1,0-.2,0-.2h.2c0-.1.3-.2.3-.2h0c0,0,0-.2,0-.2v-.2s.1,0,.1,0h.2c0-.1,0-.1,0-.1h0v-.2h0s0,0,0,0h.1s.2,0,.2,0h.1c0,0,0-.2,0-.2h.4s.2,0,.2,0h0c0,.1,0,.2,0,.2h-.2c0,0-.4.2-.4.2h-.2s-.2.2-.2.2l-.2.2v.2c-.1,0,0,0,0,0h.1c0,0,0,.1,0,.1h0c0,0-.1.3-.1.3v.2c-.1,0-.3.3-.3.3h0c0,.1,0,.1,0,.1h.2s.5-.2.5-.2h.2s0,0,0,0h0s-.3.3-.3.3h-.2c0,0-.2,0-.2,0h0s0,0,0,0h0c0,.1,0,.3,0,.3v.2c-.1,0-.2,0-.2,0h-.1s-.2,0-.2,0h0c0,0,0,.2,0,.2h0c0,.1.5,0,.5,0h.2c0-.1.1-.3.1-.3h.2c0-.1.1-.1.1-.1h.1s0,.2,0,.2h-.1c0,.1,0,.2,0,.2h-.2s0,.2,0,.2v.2c0,0-.2.1-.2.1h-.3c0,.1-.5.3-.5.3h-.2c0,0-.2.2-.2.2h-.1c0,0,0,.1,0,.1h0s0,0,0,0h.1c0,.1.2.1.2.1h.2s.1-.1.1-.1h.1c0-.1,0-.2,0-.2h.1s.2,0,.2,0h.2c0-.1.1-.3.1-.3v-.2s.2-.1.2-.1h.1c0-.1.2-.5.2-.5h.1c0-.1.2-.3.2-.3h.1s.2,0,.2,0h.1c0,.1,0,.2,0,.2h0c0,.1-.1.3-.1.3l-.2.2h0c0,.1.1.2.1.2l.2-.2.2-.2.5-.3.2-.2.2-.2v-.2c.1,0,.1-.2.1-.2h.3c0,0,.1.2.1.2h0c0,.1-.1.3-.1.3l-.2.4v.2s0,.2,0,.2l-.4.2-.4.2h-.5c0,.1-.5.2-.5.2h0c0,.1,0,.2,0,.2h-.2c0,.1-.3.1-.3.1h-.1c0,0-.1.1-.1.1h.1s.2,0,.2,0h.4s.2-.2.2-.2h.2c0,0,.2,0,.2,0h.3s.2,0,.2,0h.2s.2,0,.2,0l.2-.2h.2s0,0,0,0h0c0,0,0,.2,0,.2h0s.4,0,.4,0h.2s.2,0,.2,0h0c0-.1,0-.2,0-.2l.2-.2h.1c0,0,.2,0,.2,0h.2s.1.1.1.1h0s0,.1,0,.1h0c0,.1-.2.3-.2.3h-.2s.3.1.3.1h.3s.3,0,.3,0h.3s.6-.2.6-.2h.6c0-.1.1-.3.1-.3h0c0,0,.1,0,.1,0h.3s.2,0,.2,0h.2c0,0,.1-.3.1-.3l.2-.3h.1c0-.1.2-.2.2-.2h.1c0,.1,0,.2,0,.2h0c0,.1,0,.3,0,.3l-.2.3v.2c0,0,.2,0,.2,0h.2c0,0,.1-.1.1-.1h0c0-.1,0-.2,0-.2h.3c0-.1.3-.2.3-.2h.2c0-.1,0,0,0,0h0c0,0,.2.2.2.2h.2s.3,0,.3,0h.1c0-.1.1-.2.1-.2h.1s.1,0,.1,0h.6c0,.1.4,0,.4,0h.2c0,0,.1-.2.1-.2h.2c0,0,.1-.1.1-.1h.1c0,0,.2,0,.2,0h.1c0,0,.1,0,.1,0h.2c0-.1.2-.2.2-.2h.2c0-.1.8-.2.8-.2h.7c0,0,.7-.2.7-.2h.4c0-.1.3-.3.3-.3h.3s.3,0,.3,0l.5-.2.5-.2h.3s.3,0,.3,0v-.2s.2,0,.2,0h.3s.3.2.3.2h.2s.2,0,.2,0h.4c0,0,.4-.2.4-.2h.2c0,0,.1-.1.1-.1h.2c0-.1,0-.3,0-.3l.8-.2.9-.2h.4c0,0,.4-.1.4-.1h.8c0,0,.3,0,.3,0h.3s.6,0,.6,0h.6s.6.2.6.2l1.1.2h.6c0,.1.6.1.6.1h.3c0,0,.3,0,.3,0h.7c0,0,.3,0,.3,0h.4s.3,0,.3,0h.3c0,.1.5.1.5.1h.6s.3,0,.3,0h.3s.3-.1.3-.1h.3c0-.1.3,0,.3,0h.3c0,.1.6.1.6.1h1.2s.6,0,.6,0h.6s.6.1.6.1h.3c0,.1.3.2.3.2h.4s.4,0,.4,0l.8.2.8.2h.4s.5,0,.5,0h.5c0-.1.4-.2.4-.2h.4c0,0,.2-.1.2-.1h.2c0,0,1.1-.3,1.1-.3h.5c0,0,.5,0,.5,0h0c0,0,0,0,0,0h0s0,0,0,0h0s0-.2,0-.2h.4c0,0,.2,0,.2,0h.2s.3,0,.3,0h0s-.2,0-.2,0h0c0,0,0-.1,0-.1h.3c0-.1.3-.1.3-.1h.6s-.8-.2-.8-.2ZM8.1,21.6h-.3s-.2.2-.2.2h0c0,.1,0,.2,0,.2h0c0,.1.1.2.1.2h0s0,0,0,0h-.3c0,0,0-.1,0-.1v-.2s.2-.2.2-.2l.2-.3h0c0,0,0,0,0,0h.2s.2,0,.2,0h0s0,.2,0,.2ZM11.4,22.3v.2c0,0-.1.4-.1.4h0c0,0,0,.1,0,.1h-.2s-.2,0-.2,0h-.1v-.3h0c0-.1,0-.3,0-.3v-.2c0,0,.4,0,.4,0h.3s-.2.2-.2.2ZM12.1,21h-.1s-.2.2-.2.2h0s-.1,0-.1,0h-.1s-.2-.1-.2-.1h.2s.2-.1.2-.1l.3-.2h.1c0,0,.1,0,.1,0h0c0,.1,0,.3,0,.3h-.2Z"/>
    </g>
  </g>
</svg>