<?xml version="1.0" encoding="utf-8"?>
<!-- Generator: Adobe Illustrator 28.0.0, SVG Export Plug-In . SVG Version: 6.00 Build 0)  -->
<svg version="1.1" id="Layer_1" xmlns="http://www.w3.org/2000/svg" xmlns:xlink="http://www.w3.org/1999/xlink" x="0px" y="0px"
	 viewBox="0 0 500 252" style="enable-background:new 0 0 500 252;" xml:space="preserve">
<style type="text/css">
	.st0{clip-path:url(#SVGID_00000181073578657492968210000004474937828227241366_);}
	.st1{fill:#F49813;}
	.st2{fill:#3069B5;}
</style>
<g>
	<defs>
		<rect id="SVGID_1_" x="117.5" y="72.8" width="261" height="104.5"/>
	</defs>
	<clipPath id="SVGID_00000040537556068564693510000010621461185039368372_">
		<use xlink:href="#SVGID_1_"  style="overflow:visible;"/>
	</clipPath>
	<g style="clip-path:url(#SVGID_00000040537556068564693510000010621461185039368372_);">
		<path class="st1" d="M251,72.8c9.3-0.3,18.7,1.1,27.5,4.2c13.2,4.6,25.1,13.2,33.7,24.2c3.8,4.8,7,10.2,9.5,15.8
			c0.4,0.9,0.8,2,0.5,3c-0.3,1.8-1.8,3.2-3.6,3.4c-1.8,0.3-3.7-0.9-4.4-2.6c-5-11.7-13.5-21.9-24-28.9c-6.5-4.4-13.9-7.6-21.6-9.3
			c-9.9-2.3-20.3-2.3-30.2,0c-14.1,3.3-27.1,11.4-36.2,22.6c-3.9,4.7-7.1,10-9.5,15.7c-0.5,1.3-1.7,2.3-3.1,2.6
			c-1.3,0.3-2.8-0.2-3.8-1.2c-1.1-1.1-1.5-2.9-0.9-4.3c6.6-15.7,18.9-28.8,34-36.7C229,76.1,240,73.2,251,72.8z"/>
		<path class="st2" d="M238.7,121c-0.1-0.8,0.7-1.4,1.5-1.4c1,0,2,0,3,0c0.7,0,1.5,0.5,1.5,1.3c0,9.1,0,18.2,0,27.3
			c3.7-4.1,7.4-8.2,11.1-12.3c0.7-0.7,1.3-1.8,2.4-1.9c1.5-0.1,3.1,0,4.6,0c0.6-0.1,1.2,0.5,1,1.1c-0.2,0.5-0.7,0.8-1,1.2
			c-4,4-8,8-12,12c3.8,4.4,7.6,8.8,11.5,13.2c0.5,0.6,1.1,1.2,1.5,1.9c0.3,0.5-0.2,1.2-0.8,1.2c-1.3,0.1-2.5,0-3.8,0
			c-0.7,0-1.4,0.1-2-0.3c-0.6-0.4-1-1-1.5-1.6c-3.7-4.7-7.4-9.3-11.1-14c0,4.6,0,9.2,0,13.7c0,0.5,0.1,1.2-0.4,1.5
			c-0.7,0.7-1.8,0.5-2.7,0.5c-0.8,0-1.8,0.1-2.4-0.4c-0.4-0.3-0.5-0.8-0.4-1.2C238.7,149,238.7,135,238.7,121z"/>
		<path class="st2" d="M221.9,133.9c1.9-0.6,3.9-0.7,5.8,0.1c0.6,0.3,1.4,0.9,1.1,1.7c-0.3,1-0.5,2-0.9,3c-0.3,0.7-1.1,1-1.7,0.8
			c-1.5-0.3-3-0.8-4.6-0.7c-1.1,0-2.1,0.6-2.8,1.3c-1.2,1.2-1.8,2.8-2.1,4.5c-0.2,1.2-0.2,2.4-0.2,3.6c0,5,0,10,0,15.1
			c0.1,0.8-0.8,1.4-1.5,1.4c-1,0-2,0-3.1,0c-0.7,0-1.6-0.6-1.5-1.4c0-9.3,0-18.6,0-27.9c-0.1-0.9,1-1.4,1.8-1.3c1,0.1,2.4-0.3,3,0.7
			c0.5,1.2,0.7,2.4,1.2,3.6C217.7,136.4,219.6,134.7,221.9,133.9z"/>
		<path class="st2" d="M117.5,134.6c0.3-0.3,0.6-0.7,1.1-0.6c1.4,0,2.8,0,4.2,0c0.7,0,1.2,0.6,1.3,1.3c1.4,5.6,2.7,11.1,4.1,16.7
			c0.4,1.7,0.9,3.4,1.1,5.2c0.3,1.6,0.3,3.2,0.6,4.7c0.4-2.2,0.7-4.5,1.3-6.7c1.8-6.6,3.6-13.3,5.3-19.9c0.1-0.8,0.8-1.3,1.6-1.3
			c1.5,0,3.1,0,4.6,0c0.8,0,1.7,0.4,1.9,1.3c1.3,4.8,2.6,9.7,4,14.5c0.8,3.1,1.9,6.2,2.3,9.4c0.1,0.9,0.2,1.8,0.4,2.7
			c0.5-5,1.8-10,2.9-14.9c0.9-3.9,1.7-7.9,2.6-11.8c0.1-0.8,1-1.2,1.7-1.2c1.2,0,2.5,0,3.7,0c0.7,0,1.2,0.8,0.9,1.5
			c-2.5,9.3-5,18.5-7.5,27.8c-0.1,0.7-0.8,1.3-1.5,1.3c-1.9,0.1-3.9,0-5.8,0c-0.7,0-1.4-0.3-1.6-1.1c-1.7-6.4-3.4-12.7-5.2-19.1
			c-0.6-2.2-0.9-4.5-1.1-6.8c-0.3,2-0.5,4.1-1,6.1c-1.8,6.6-3.5,13.1-5.3,19.7c-0.2,1.1-1.4,1.3-2.3,1.2c-1.8,0-3.6,0-5.4,0
			c-0.6,0-1.1-0.5-1.3-1.1c-2.5-9.2-5-18.4-7.6-27.7C117.5,135.4,117.5,135,117.5,134.6z"/>
		<path class="st2" d="M344.7,134c1.3,0,2.6,0,4,0c0.8,0,1.6,0.6,1.8,1.3c2.3,5.9,4.5,11.9,6.8,17.8c0.5,1.2,0.8,2.5,1,3.7
			c0.9-3.5,2.2-7,3.3-10.4c1.2-3.8,2.4-7.5,3.7-11.3c0.2-0.7,0.8-1.1,1.5-1.2c1.1-0.1,2.2,0,3.2,0c0.6,0,1.4-0.1,1.9,0.4
			c0.3,0.3,0.2,0.7,0.1,1c-3.6,10.4-7.2,20.7-10.9,31.1c-0.6,1.7-1.1,3.5-2.1,5.1c-1.5,2.4-3.8,4.1-6.4,5c-0.9,0.3-1.8,0.9-2.8,0.6
			c-0.7-0.2-1-0.9-1.3-1.4c-0.3-0.5-0.8-0.9-0.7-1.5c0-0.6,0.5-1.1,1.1-1.2c1.1-0.4,2.2-0.8,3.1-1.6c2.2-1.8,3.5-4.5,4-7.3
			c-0.3-1.2-1-2.3-1.4-3.5c-3.5-8-6.9-16.1-10.4-24.1c-0.2-0.5-0.5-1-0.6-1.6C343.4,134.3,344.2,134,344.7,134z"/>
		<path class="st2" d="M183.3,137.9c-1.9,0.4-3.6,1.5-4.6,3.2c-1.6,2.7-1.8,6-1.7,9.1c0.1,2.8,0.6,5.8,2.3,8
			c1.3,1.7,3.5,2.5,5.6,2.5c2,0.1,4.2-0.6,5.6-2.2c1.8-1.9,2.3-4.6,2.6-7.1c0.1-2.5,0.2-5-0.5-7.4c-0.5-2-1.6-4.1-3.5-5.2
			C187.4,137.7,185.3,137.6,183.3,137.9z M184.1,133.5c3.4-0.2,7,0.5,9.8,2.5c2.5,1.8,4.2,4.6,5,7.5c1,3.5,0.9,7.3,0.1,10.9
			c-0.8,3.3-2.7,6.4-5.6,8.2c-3.1,2-6.9,2.6-10.5,2.1c-3.1-0.4-6-1.7-8.2-4c-2.5-2.6-3.8-6.2-4-9.8c-0.3-4,0.3-8.2,2.5-11.6
			c1.6-2.5,4.2-4.4,7.1-5.3C181.6,133.7,182.8,133.6,184.1,133.5z"/>
		<path class="st2" d="M284.9,137.7c-1.9,0.1-3.7,1.2-4.5,2.9c-1.6,3.2-1.7,6.8-1.6,10.3c0.1,2.3,0.4,4.6,1.4,6.7
			c0.7,1.4,2,2.5,3.6,2.8c2.4,0.6,5.1,0.1,6.8-1.8c1.6-1.8,2.1-4.3,2.4-6.7c0.2-2.7,0.2-5.4-0.5-8.1c-0.5-1.8-1.2-3.5-2.6-4.7
			C288.5,138,286.6,137.5,284.9,137.7z M292.9,120.7c0-0.7,0.7-1.2,1.3-1.2c1-0.1,2,0,3,0c0.8,0,1.6,0.6,1.5,1.4c0,14,0,28.1,0,42.1
			c0.1,0.7-0.7,1.3-1.3,1.3c-0.8,0-1.6,0-2.4,0c-0.6,0-1.1-0.4-1.3-0.9c-0.3-0.9-0.5-1.9-0.7-2.8c-1.1,1.5-2.6,2.9-4.4,3.5
			c-2.6,0.9-5.4,1-8,0.3c-2.6-0.6-4.9-2.5-6.2-4.8c-2-3.7-2.2-8-2.1-12c0.1-3.5,0.7-7.2,3-9.9c1.7-2.3,4.5-3.7,7.3-4
			c2.6-0.4,5.5,0.1,7.7,1.7c1,0.7,1.9,1.7,2.6,2.7C292.9,132.2,292.9,126.4,292.9,120.7z"/>
		<path class="st2" d="M321.3,137.9c-0.9,0.2-1.9,0.6-2.6,1.2c-1.5,1.2-2.3,3.1-2.7,4.9c-0.6,2.9-0.6,5.9-0.3,8.8
			c0.3,2.2,0.8,4.4,2.4,6c1.3,1.3,3.2,1.8,5,1.8c1.9,0.1,4-0.7,5.2-2.2c1.6-1.9,2-4.4,2.2-6.8c0.1-2.8,0.1-5.7-0.6-8.4
			c-0.5-1.7-1.4-3.4-2.9-4.3C325.4,137.7,323.2,137.6,321.3,137.9z M318.7,134c2.7-0.7,5.6-0.8,8.3-0.2c2.5,0.6,4.9,2,6.5,4.1
			c1.6,2.2,2.5,4.8,2.8,7.5c0.3,2.1,0.2,4.1,0.2,6.2c0,3.7,0,7.5,0,11.2c0,0.5-0.2,0.9-0.6,1.1c-0.6,0.4-1.4,0.2-2.1,0.3
			c-0.8,0-1.8,0.1-2.2-0.8c-0.4-1-0.5-2-0.8-3c-1.1,1.3-2.1,2.6-3.7,3.3c-2.3,1.2-5,1.1-7.5,0.6c-3-0.6-5.9-2.4-7.6-5
			c-2.1-3-2.8-6.8-2.8-10.4c0-3.5,0.7-7.1,2.6-10.1C313.4,136.6,315.9,134.8,318.7,134z"/>
		<path class="st2" d="M373.2,157.1c-1.5,0.6-2.5,2.4-2.1,4c0.4,1.9,2.6,3.2,4.4,2.5c1.7-0.5,2.8-2.4,2.2-4.1
			C377.3,157.5,375,156.3,373.2,157.1z M373.4,156.3c0.9-0.1,1.9-0.2,2.8,0.3c1.5,0.7,2.5,2.2,2.3,3.8c0.1,1.9-1.5,3.7-3.4,4
			c-2.1,0.4-4.3-1.1-4.8-3.2C369.8,159.1,371.3,156.7,373.4,156.3z"/>
		<path class="st2" d="M373.8,158.6c0,0.4,0,0.9,0,1.3c0.4,0,0.8,0,1.2-0.1c0.4-0.1,0.3-0.6,0.2-0.9
			C374.8,158.6,374.3,158.7,373.8,158.6z M372.7,157.9c1.1,0.1,2.4-0.2,3.4,0.4c0.8,0.6,0.4,1.9-0.5,2.2c0.3,0.7,0.6,1.3,1,2
			c-0.4,0-0.8,0-1.2,0c-0.3-0.6-0.6-1.2-0.9-1.8c-0.2,0-0.4,0-0.5,0c0,0.6,0,1.2,0,1.9c-0.4,0-0.8,0-1.2,0
			C372.7,160.9,372.6,159.4,372.7,157.9z"/>
	</g>
</g>
</svg>
