<svg role="img" viewBox="0 0 24 24" xmlns="http://www.w3.org/2000/svg"><title>Microsoft Outlook</title><path fill="#3f434a" d="M7.88 12.04a4.73 4.73 0 01-1.84-.35 4.15 4.15 0 01-1.44-1 4.3 4.3 0 01-.93-1.52 5.66 5.66 0 01-.3-1.9 5.37 5.37 0 01.3-1.77 4.31 4.31 0 012.38-2.49 4.9 4.9 0 011.95-.35 4.91 4.91 0 011.95.36 4.54 4.54 0 011.42 1 4.22 4.22 0 01.88 1.52c.2.6.3 1.24.29 1.88a5.37 5.37 0 01-.3 1.79 4.32 4.32 0 01-.88 1.53 4.14 4.14 0 01-1.43 1 4.7 4.7 0 01-1.84.35zm-.03-1.54a2.16 2.16 0 001-.23c.29-.16.53-.39.7-.67a3.28 3.28 0 00.43-1 5.2 5.2 0 00.14-1.23 4.83 4.83 0 00-.14-1.2 2.8 2.8 0 00-.45-.98 2.16 2.16 0 00-.73-.67 2.08 2.08 0 00-1-.24 2.15 2.15 0 00-1 .24 2 2 0 00-.73.68 3.23 3.23 0 00-.43 1 5.45 5.45 0 00-.14 1.23 4.86 4.86 0 00.15 1.2 3 3 0 00.44 1 2.22 2.22 0 00.73.67 2.1 2.1 0 001.03.2zM3.35 2.1h8.25v2.4l4.5-2.4H23v6.4L21.5 9.74l-1.74-1.2v11.4h-8.15v2.4h-8.3a1 1 0 01-1-.98V3.08a1 1 0 011-.98zm8.25 4.4v1.74l5.15 3.49 5.15-3.49V6.5l-5.15 2.76L11.6 6.5zm0 11.34h6V12L16.75 12l-.85.06v.02L11.6 9.17v8.67z"/></svg>
