<svg role="img" viewBox="0 0 24 24" xmlns="http://www.w3.org/2000/svg"><title>Slack</title><path fill="#3f434a" d="M5.042 15.165a2.528 2.528 0 11-2.528-2.527h2.528v2.527zM6.319 15.165a2.528 2.528 0 115.056 0v6.32a2.528 2.528 0 11-5.056 0v-6.32zm2.527-10.123a2.528 2.528 0 11-2.527-2.527 2.528 2.528 0 012.527 2.528v2.527H6.32a2.528 2.528 0 112.527-2.528zM8.846 6.319a2.528 2.528 0 110 5.056H2.528a2.528 2.528 0 110-5.056h6.319zm10.123 2.527a2.528 2.528 0 112.528-2.527v2.527h-2.528zm-1.278 0a2.528 2.528 0 11-5.055 0V2.528a2.528 2.528 0 115.055 0v6.318zM15.165 18.97a2.528 2.528 0 112.527 2.528 2.528 2.528 0 01-2.527-2.528V16.44h2.527a2.528 2.528 0 11-2.527 2.528zM15.165 17.692a2.528 2.528 0 110-5.055h6.32a2.528 2.528 0 110 5.055h-6.32z"/></svg>
