<svg role="img" viewBox="0 0 24 24" xmlns="http://www.w3.org/2000/svg"><title>UKG</title><path fill="#3f434a" d="M11.4478 17.1635C11.8443 16.7968 12.2594 16.4682 12.6746 16.1286C13.5502 15.4086 14.5936 15.0341 15.6565 15.1477C17.0494 15.2992 18.1196 16.0192 18.9102 17.252C19.0227 17.4288 19.0319 17.555 18.8571 17.7192C18.5263 18.0288 18.214 18.3637 17.9052 18.6985C17.7084 18.907 17.5614 18.9007 17.3712 18.6607C16.7778 17.9156 16.0426 17.6434 15.1314 17.996C14.6432 18.1855 14.1895 18.4834 13.7577 18.7875C13.1164 19.2475 12.4979 19.7518 11.8686 20.2497C11.841 20.2749 11.8134 20.2939 11.786 20.3192C11.4817 20.6043 11.2746 20.6043 10.9703 20.3192C10.306 19.7008 9.6179 19.1075 8.91593 18.5332C8.54674 18.2361 8.13359 17.9897 7.7141 17.8C6.8514 17.408 6.08992 17.6802 5.51897 18.3816C5.27119 18.6859 5.10884 18.6923 4.83907 18.426C4.55622 18.1538 4.282 17.8628 3.97774 17.6159C3.71933 17.4081 3.72914 17.2438 3.91877 16.9907C5.32268 15.1033 7.5313 14.5728 9.49413 15.6504C10.1716 16.0248 10.781 16.5431 11.4225 17.0041C11.4318 17.0041 11.4379 17.0293 11.4478 17.0419V17.1635zM11.4449 0C17.7621 0 22.8955 5.34756 22.8955 11.9265C22.8955 15.4226 21.4347 18.6028 18.9912 20.7872C17.6668 22.0326 16.0141 22.91 14.1819 23.3183C13.3028 23.6948 12.3362 23.9897 11.4478 23.9897C10.4392 23.9897 9.38986 23.6951 8.38738 23.3275C6.66636 22.9501 5.10717 22.1315 3.83407 20.9894C3.78642 20.946 3.73897 20.9023 3.6919 20.8583C1.43636 18.7356 0.00875809 15.6735 0.00875809 12.2821C0.00778316 5.48772 5.12345 0 11.4449 0ZM11.478 20.6412C11.7638 20.4767 12.0156 20.3755 12.2222 20.2048C13.0316 19.5398 13.8578 18.894 14.6261 18.1855C15.1138 17.7318 15.5942 17.6434 16.1642 17.9156C16.3797 18.0174 16.561 18.2045 16.7654 18.3372C17.1795 17.8075 17.183 17.7761 16.5835 17.3516C15.7773 16.7837 14.9019 16.7584 14.0618 17.2266C13.5377 17.517 13.0437 17.8893 12.5614 18.2612C12.1024 18.6153 11.6707 19.0132 11.2438 19.4181C11.0067 19.6408 10.8552 19.6469 10.6156 19.4275C9.94472 18.8192 9.25313 18.2485 8.56573 17.6686C7.94924 17.1486 7.25704 16.8578 6.46187 17.0619C6.01627 17.1759 5.6041 17.4479 5.15663 17.6725C5.33313 17.9156 5.50358 18.1538 5.67168 18.3892C5.6923 18.3857 5.71253 18.3883 5.72014 18.3784C5.83148 18.2672 5.94654 18.1566 6.05043 18.0331C6.3988 17.6159 6.78815 17.671 7.21486 17.8996C7.45528 18.0288 7.69407 18.173 7.91322 18.3357C8.76071 18.9706 9.60139 19.6184 10.431 20.2798C10.7243 20.5148 11.0124 20.6638 11.478 20.6412ZM11.4478 14.5053C11.999 14.5053 12.4666 14.0248 12.4666 13.4647C12.4666 12.892 11.9942 12.4337 11.4129 12.4527C10.8732 12.4716 10.4338 12.9306 10.4338 13.4773C10.4338 14.0499 10.8899 14.5053 11.4478 14.5053Z"/></svg>
