<?xml version="1.0" encoding="UTF-8"?>
<svg id="Layer_1" xmlns="http://www.w3.org/2000/svg" version="1.1" viewBox="0 0 1270 566">
  <!-- Generator: Adobe Illustrator 30.2.1, SVG Export Plug-In . SVG Version: 2.1.1 Build 1)  -->
  <defs>
    <style>
      .st0 {
        fill: #3b3b38;
      }

      .st1 {
        fill: #fff;
      }

      .st2 {
        fill: #ed174f;
      }
    </style>
  </defs>
  <path class="st2" d="M406.065521,521.094849c-19.126953,1.389099-40.044952-5.575562-56.473969-14.841644-15.621338-8.810577-33.529938-16.994232-44.15509-31.834351-36.562439-.55011-72.625305-.407227-109.376694-2.889435-19.601181-1.323853-38.01384-3.829315-57.304611-6.363342-38.029602-4.995544-70.266136-19.262878-85.145424-56.777405-13.608425-34.310364-14.756096-77.29248-16.558472-114.376343-2.457287-50.558563-2.886063-101.97966,7.622849-151.347748,5.233566-24.585907,16.938332-62.984772,40.448814-75.556175,28.706352-15.349705,72.294861-20.980865,104.936279-21.877716,33.085144-.909042,65.124359-.563004,98.140991.422718l88.785889,2.650723c23.237915.693775,45.006897,4.076645,67.212891,10.482105,25.853027,7.457462,48.693359,22.846539,62.863678,45.935001,8.134186,13.253479,11.668304,28.355331,13.238068,44.012741,5.969177,59.536972,7.127808,118.743073,5.051636,178.56488-.839661,24.194244-4.210693,47.190399-10.840393,70.234039-6.676453,23.206177-19.58786,47.080841-43.393524,55.653107-22.121399,7.96579-45.395599,6.172668-69.014526,11.669067-2.919342,11.654083-1.089264,22.219635,3.283997,32.953308,2.881439,7.072174,11.249298,22.518646.677582,23.286469h.000031Z"/>
  <path class="st0" d="M779.359558,317.473724c.309814,26.432281-10.968323,49.808472-32.380737,64.516632-14.604004,10.031464-31.779053,16.013763-50.06366,16.048065l-114.867432.215393c-2.965149.005554-6.043823-2.063934-6.043884-5.437317l-.005676-261.663544c-.000061-3.5914,2.722412-5.908508,6.081482-5.90509l103.863464.105858c46.338318.047226,85.676208,32.380501,83.519775,81.139565-1.44812,32.743164-23.30481,46.853241-23.446228,50.061768-.033508.76062.906799,2.27594,1.918762,2.937378,19.196411,12.546387,31.141663,33.890625,31.424072,57.981323l.000061-.000031ZM683.579529,231.395401c9.516846.007111,17.604309-5.563721,21.79071-11.858322,5.282227-7.94223,6.077881-17.038284,2.586121-25.613708-3.792297-9.313553-12.653564-15.696472-22.953918-15.673492l-54.155457.120789-.026001,52.985367,52.758484.039383.000061-.000015ZM689.978088,345.514404c15.849915-.083374,26.581299-13.466064,26.236023-28.526611.353699-15.03479-10.590698-28.473267-26.078674-28.407196l-59.49231.253815-.187988,53.317169c-.003967,1.129883,1.703491,3.218506,2.751892,3.661499l56.770996-.298676h.000061Z"/>
  <path class="st0" d="M1216.654175,261.667542c8.023315,22.730255,8.530884,45.934967,1.529175,68.386353-12.005249,38.495728-45.81189,65.218292-86.169434,67.938568-24.166748,1.628967-47.187256-4.222534-67.031738-18.15097-25.340332-17.785889-42.241089-46.424438-42.288025-77.975159l-.255127-171.643982c-.003845-2.589806,2.123718-4.222816,4.444275-4.223755l45.230347-.018295c1.182495-.000481,3.849365,1.764908,3.85437,3.056259l.30249,79.562912c56.424438-24.880936,118.269409-4.348785,140.383789,53.068069h-.000122ZM1165.714722,318.218323c4.582886-12.586975,4.519897-25.506104.807007-37.746918-5.677246-18.716858-22.165039-29.829666-41.476196-30.045807-26.591309-.297623-47.684814,19.141602-48.783691,45.6633-1.182617,28.545135,21.142334,50.818115,49.868774,49.905914,17.807373-.565491,33.263672-10.41748,39.583984-27.776459l.000122-.000031Z"/>
  <path class="st0" d="M1001.38208,296.478455c.9422,57.191803-44.094238,101.832153-100.372864,101.896179-56.155518.063904-100.78595-44.143707-100.659119-100.376434.126343-56.05191,44.671753-99.98613,100.682739-99.914444,54.857483.070206,99.430603,42.634644,100.349243,98.394699ZM901.513123,346.029022c24.379822-.301971,42.903564-17.486572,45.554382-41.095093,1.745911-15.549469-2.296204-31.137848-14.010071-42.088318-17.740845-16.584625-46.421082-16.639404-64.227966-.120087-11.763,10.912415-15.896118,26.633942-14.127197,42.224915,2.733215,24.089966,21.987366,41.386078,46.810913,41.078583h-.000061Z"/>
  <path class="st1" d="M424.470886,186.849121c15.006561-5.813416,20.791321-20.831451,19.007843-35.19136-2.217682-17.856064-16.644684-29.299362-34.578094-27.599915-12.783142,1.211388-23.729706,8.29953-28.54361,19.232132-5.281342,11.994171-4.325867,25.832062,5.103088,35.436661,9.575989,9.754379,25.809906,13.236374,39.010742,8.122482h.000031Z"/>
  <path class="st1" d="M325.571594,399.09317c14.847961.023102,9.783569-21.474976,9.455536-32.116302l-2.63092-85.34375-1.749847-60.679291-2.024841-86.378204c-.053619-2.28714-5.219238-4.759735-7.428192-4.888474-15.809204-.921371-31.989075-.790558-47.455597,1.934265-6.493713,1.144028-10.595551,5.932968-10.519379,12.437134l.889587,75.966568c.044708,3.817017-2.23761,6.617996-6.400177,6.679794l-74.731934,1.109512c-2.275879.033783-4.46814-3.81041-4.708069-6.196625-2.78949-27.743088-4.661148-54.785065-6.008118-82.67186-.160461-3.322159-1.275146-6.649384-3.134415-9.507538-13.43898-.810684-43.607422-2.140816-55.205917,3.33902-.889328,3.82251-1.807625,8.179413-1.692848,12.243347l2.825127,100.031357,4.540764,149.10202c.064278,2.110748,2.565506,4.790283,4.366158,4.861755,8.910141.353607,16.817413.519806,25.455475.3909l35.27594-.526489c2.745865-3.747955,2.452148-8.472565,2.45549-12.953888.020569-27.571381-.591629-54.382965-3.069336-81.864532-.371353-4.118927,2.739532-7.274872,6.991028-7.458679l67.906464-2.93576c2.33728-.101044,5.720551.088165,7.413727,1.148621,1.442871.903687,2.973602,3.938965,3.08667,6.014374l2.156555,39.586731,2.8573,53.034454c.148468,2.755463,2.694885,5.566345,5.439453,5.570618l45.644348.070984-.000031-.000061Z"/>
  <path class="st1" d="M439.43454,396.043549c3.260101-3.258179,2.016418-9.909424,2.037201-14.05127l.401154-79.985138.01004-71.058701c.000641-4.443878-6.055664-7.721359-10.060791-7.720383l-44.805054.010941c-1.503448.000366-3.854156,2.144455-3.88623,3.645615l-1.286346,60.176331.004059,101.895172c.000092,2.440674,1.269958,5.957245,2.489197,7.300659,1.103119,1.215515,4.581726,1.833252,6.567749,1.855286l33.151184.367676c4.549164.050446,11.867676,1.071869,15.377808-2.436188h.000031Z"/>
  <metadata>
    <sfw xmlns="http://ns.adobe.com/SaveForWeb/1.0/">
      <slices/>
      <sliceSourceBounds x="35.6" y="44.73" width="1187.48" height="476.57" bottomLeftOrigin="true"/>
    </sfw>
  </metadata>
</svg>