<svg width="145" height="32" viewBox="0 0 145 32" fill="none" xmlns="http://www.w3.org/2000/svg">
<path d="M142.981 29.1093H143.486C143.546 29.1055 143.605 29.0915 143.66 29.0689C143.71 29.0483 143.753 29.0145 143.786 28.9713C143.824 28.9168 143.84 28.8502 143.835 28.7844C143.837 28.7309 143.824 28.6783 143.797 28.6323C143.772 28.5929 143.739 28.56 143.7 28.5347C143.656 28.5103 143.61 28.4934 143.562 28.483C143.51 28.4784 143.458 28.4784 143.407 28.483H142.979V29.1093H142.981ZM142.981 30.1646H142.741V28.2568H143.475C143.642 28.2399 143.808 28.2896 143.94 28.3948C143.989 28.4474 144.025 28.5093 144.05 28.5769C144.073 28.6445 144.083 28.7168 144.078 28.7882C144.081 28.8661 144.068 28.945 144.04 29.0182C144.016 29.0774 143.981 29.1309 143.937 29.176C143.892 29.2191 143.839 29.2529 143.782 29.2764C143.723 29.3036 143.66 29.3224 143.596 29.3337L144.17 30.1731H143.901L143.327 29.3337H142.983V30.1646H142.981ZM141.927 29.222C141.925 29.4126 141.962 29.6013 142.036 29.7768C142.178 30.1158 142.446 30.3862 142.784 30.5298C142.959 30.6049 143.148 30.6434 143.337 30.6416C143.528 30.6416 143.716 30.604 143.89 30.5298C144.056 30.4632 144.209 30.3655 144.34 30.2425C144.468 30.112 144.569 29.959 144.641 29.7909C144.715 29.6154 144.752 29.4266 144.752 29.236C144.752 29.0454 144.715 28.8567 144.641 28.6812C144.5 28.3403 144.23 28.0699 143.89 27.9282C143.716 27.8531 143.527 27.8155 143.337 27.8164C143.147 27.8146 142.959 27.8531 142.784 27.9282C142.618 27.9958 142.466 28.0934 142.334 28.2155C142.206 28.345 142.103 28.4981 142.03 28.6671C141.957 28.8426 141.921 29.0314 141.924 29.222H141.927ZM141.686 29.222C141.684 28.9994 141.729 28.7788 141.817 28.5751C141.9 28.3779 142.021 28.1995 142.173 28.0493C142.323 27.8981 142.502 27.777 142.698 27.6925C142.902 27.6033 143.121 27.5582 143.343 27.5601C143.563 27.5582 143.783 27.6033 143.985 27.6925C144.382 27.8615 144.699 28.1779 144.868 28.5751C144.955 28.7797 145 28.9994 145 29.222C145 29.4445 144.955 29.6642 144.868 29.8689C144.696 30.2613 144.379 30.573 143.985 30.7392C143.783 30.8284 143.563 30.8735 143.343 30.8716C143.121 30.8735 142.902 30.8284 142.698 30.7392C142.502 30.6547 142.324 30.5345 142.173 30.3824C142.023 30.2378 141.903 30.067 141.817 29.8764C141.727 29.6698 141.682 29.4464 141.686 29.221V29.222Z" fill="white"/>
<path d="M113.144 11.0896C107.487 11.0896 102.9 15.5822 102.9 21.1245C102.9 26.6668 107.487 31.1594 113.144 31.1594C118.801 31.1594 123.387 26.6668 123.387 21.1245C123.387 15.5822 118.801 11.0896 113.144 11.0896ZM117.142 21.0438C117.142 21.0644 117.142 21.0851 117.142 21.1057C117.142 21.1217 117.142 21.1367 117.142 21.1527C117.142 21.1527 117.142 21.1545 117.142 21.1555C117.142 21.1564 117.142 21.1574 117.142 21.1583C117.142 21.1743 117.142 21.1893 117.142 21.2052C117.142 21.2259 117.142 21.2466 117.142 21.2672C117.142 21.2672 117.142 21.27 117.142 21.2719H117.141C117.139 21.378 117.133 21.4822 117.125 21.5864C116.847 25.9166 113.268 25.8002 113.173 25.7983C113.173 25.7983 113.172 25.7983 113.171 25.7983C113.17 25.7983 113.17 25.7983 113.169 25.7983C113.074 25.8002 109.494 25.9176 109.217 21.5864C109.209 21.4822 109.204 21.378 109.201 21.2719C109.201 21.2719 109.201 21.2719 109.201 21.271H109.2C109.2 21.271 109.2 21.2691 109.2 21.2682C109.2 21.2475 109.2 21.2268 109.2 21.2062C109.2 21.1902 109.2 21.1752 109.2 21.1592C109.2 21.1592 109.2 21.1574 109.2 21.1564C109.2 21.1555 109.2 21.1545 109.2 21.1536C109.2 21.1376 109.2 21.1226 109.2 21.1067C109.2 21.086 109.2 21.0653 109.2 21.0447C109.2 21.0447 109.2 21.0419 109.2 21.04H109.201C109.203 20.9339 109.209 20.8297 109.217 20.7255C109.495 16.3953 113.074 16.5117 113.169 16.5136C113.169 16.5136 113.17 16.5136 113.171 16.5136C113.172 16.5136 113.172 16.5136 113.173 16.5136C113.268 16.5117 116.848 16.3944 117.125 20.7255C117.133 20.8297 117.138 20.9339 117.141 21.04C117.141 21.04 117.141 21.04 117.141 21.0409H117.142C117.142 21.0409 117.142 21.0428 117.142 21.0438Z" fill="white"/>
<path d="M44.4504 2.67041H39.2414C39.1242 2.67041 39.0292 2.76541 39.0292 2.8826V30.625C39.0292 30.7422 39.1242 30.8372 39.2414 30.8372H44.4504C44.5676 30.8372 44.6626 30.7422 44.6626 30.625V2.8826C44.6626 2.76541 44.5676 2.67041 44.4504 2.67041Z" fill="white"/>
<path d="M20.4729 10.4666L20.4607 10.4272C20.4513 10.3953 20.4419 10.3633 20.4306 10.3324L17.4712 1.03355C17.1801 0.120003 15.8873 0.120003 15.5971 1.03355L12.6377 10.3324C12.6265 10.3633 12.6161 10.3953 12.6077 10.4272L12.5955 10.4666C12.5551 10.5934 12.542 10.7201 12.5514 10.8422C12.5532 11.1267 12.6368 11.4177 12.8208 11.6825L15.3023 15.2681C15.8985 16.13 17.1717 16.13 17.7679 15.2681L20.2494 11.6825C20.4325 11.4177 20.517 11.1267 20.5189 10.8422C20.5283 10.7201 20.5151 10.5934 20.4747 10.4666H20.4729Z" fill="#FC931E"/>
<path d="M14.6168 15.7226L11.9775 12.2515C11.7822 11.9952 11.5315 11.8243 11.2621 11.7352C11.1485 11.6882 11.0245 11.6619 10.8912 11.661H10.849C10.8161 11.6591 10.7832 11.6591 10.7504 11.66L0.992375 11.5896C0.0337576 11.5831 -0.367153 12.8121 0.411196 13.3716L8.3327 19.0698C8.35899 19.0904 8.38622 19.1092 8.41345 19.128L8.44725 19.1524C8.55522 19.2294 8.67165 19.282 8.79089 19.3111C9.06129 19.3975 9.36455 19.4078 9.67345 19.3158L13.8516 18.0689C14.8552 17.7694 15.2505 16.5583 14.6168 15.7245V15.7226Z" fill="#23ACB8"/>
<path d="M14.1727 18.7687L10.0528 20.1977C9.74855 20.3038 9.50819 20.4887 9.33919 20.7169C9.25938 20.8098 9.19554 20.9197 9.15329 21.0455L9.14014 21.0849C9.12888 21.1159 9.11761 21.1478 9.10822 21.1788L6.00797 30.4316C5.70377 31.3405 6.74689 32.1038 7.52054 31.5386L15.3989 25.7803C15.4261 25.7615 15.4533 25.7418 15.4796 25.7212L15.5134 25.6968C15.6204 25.6188 15.7059 25.524 15.7707 25.4198C15.9368 25.1898 16.0411 24.9053 16.0495 24.5832L16.1631 20.2239C16.1903 19.1761 15.1623 18.425 14.1727 18.7677V18.7687Z" fill="#8685E7"/>
<path d="M100.807 3.65465V2.89415C100.807 2.77115 100.707 2.67163 100.584 2.67163H95.3961C95.2731 2.67163 95.1736 2.77115 95.1736 2.89415V13.5375C93.6141 11.8456 91.5231 11.102 89.2247 11.102C84.4025 11.102 80.4929 15.3664 80.4929 20.9857C80.4929 26.605 84.4025 31.1605 89.2247 31.1605C92.9061 31.2591 94.6046 29.616 95.1755 28.8846L95.3003 30.4667L95.3154 30.6695C95.3154 30.7511 95.3942 30.8291 95.4759 30.8291H95.6261H99.455V30.8272H100.594C100.711 30.8272 100.806 30.7324 100.806 30.615V30.0967H100.807V3.65465ZM94.2441 20.9031C94.2441 20.9237 94.2441 20.9453 94.2441 20.966C94.2441 20.9819 94.2441 20.9979 94.2441 21.0139C94.2441 21.0139 94.2441 21.0157 94.2441 21.0167C94.2441 21.0176 94.2441 21.0186 94.2441 21.0195C94.2441 21.0355 94.2441 21.0514 94.2441 21.0674C94.2441 21.088 94.2441 21.1087 94.2441 21.1303C94.2441 21.1303 94.2441 21.1331 94.2441 21.135H94.2431C94.2413 21.242 94.2356 21.3491 94.2272 21.4542C93.9493 25.8454 90.3702 25.7262 90.2753 25.7243C90.2753 25.7243 90.2744 25.7243 90.2735 25.7243C90.2725 25.7243 90.2725 25.7243 90.2716 25.7243C90.1767 25.7262 86.5967 25.8445 86.3197 21.4542C86.3113 21.3491 86.3066 21.242 86.3038 21.135C86.3038 21.135 86.3038 21.135 86.3038 21.134H86.3028C86.3028 21.134 86.3028 21.1322 86.3028 21.1312C86.3028 21.1106 86.3028 21.089 86.3028 21.0683C86.3028 21.0524 86.3028 21.0364 86.3028 21.0204C86.3028 21.0204 86.3028 21.0186 86.3028 21.0176C86.3028 21.0167 86.3028 21.0157 86.3028 21.0148C86.3028 20.9988 86.3028 20.9829 86.3028 20.9669C86.3028 20.9463 86.3028 20.9256 86.3028 20.904C86.3028 20.904 86.3028 20.9012 86.3028 20.8993H86.3038C86.3057 20.7923 86.3113 20.6853 86.3197 20.5801C86.5977 16.1889 90.1767 16.3081 90.2716 16.31C90.2716 16.31 90.2725 16.31 90.2735 16.31C90.2744 16.31 90.2744 16.31 90.2753 16.31C90.3702 16.3081 93.9502 16.1898 94.2272 20.5801C94.2356 20.6853 94.2403 20.7923 94.2431 20.8993C94.2431 20.8993 94.2431 20.8993 94.2431 20.9003H94.2441C94.2441 20.9003 94.2441 20.9021 94.2441 20.9031Z" fill="white"/>
<path d="M139.756 22.5469C139.339 21.7216 138.734 20.9968 137.939 20.3734C137.143 19.7509 136.14 19.3002 134.928 19.0195L132.922 18.4853C132.24 18.3332 131.716 18.1426 131.35 17.9135C130.984 17.6844 130.801 17.4177 130.801 17.1126C130.801 16.7061 130.952 16.3821 131.255 16.1408C131.559 15.8996 131.988 15.7784 132.543 15.7784C133.174 15.7784 133.767 15.9183 134.323 16.1981C134.835 16.4573 135.188 16.8018 135.377 17.2337C135.423 17.3116 135.487 17.3088 135.524 17.2994L139.993 15.4489C140.124 15.3719 140.06 15.2545 140.06 15.2545C139.731 14.4499 139.245 13.741 138.601 13.1289C137.92 12.481 137.068 11.9787 136.046 11.6229C135.023 11.2671 133.831 11.0896 132.468 11.0896C130.094 11.0896 128.245 11.6229 126.921 12.6914C125.595 13.7589 124.933 15.2714 124.933 17.2281C124.933 18.6261 125.4 19.8589 126.334 20.9264C127.267 21.9939 128.618 22.7441 130.385 23.176L132.013 23.6332C132.719 23.7853 133.25 23.9759 133.604 24.205C133.957 24.4341 134.134 24.7514 134.134 25.158C134.134 25.5645 133.958 25.8697 133.604 26.0734C133.25 26.2771 132.771 26.3785 132.164 26.3785C131.558 26.3785 130.933 26.2199 130.365 25.9016C129.825 25.5993 129.393 25.1533 129.069 24.5627C129.023 24.497 128.964 24.5017 128.929 24.5111L124.308 26.4743C124.202 26.5306 124.21 26.6114 124.222 26.6508C124.601 27.5644 125.166 28.338 125.916 28.9708C126.698 29.6318 127.626 30.1473 128.699 30.5153C129.771 30.8834 130.927 31.0683 132.163 31.0683C133.778 31.0683 135.205 30.8261 136.442 30.3435C137.678 29.8609 138.644 29.1802 139.338 28.3033C140.032 27.4264 140.38 26.3908 140.38 25.1955C140.38 24.2557 140.171 23.3722 139.754 22.546L139.756 22.5469Z" fill="white"/>
<path d="M58.9715 30.5498L48.9449 18.6587L49.1965 19.1094L48.9074 18.7629L45.9865 22.7786L51.371 30.762C51.3936 30.793 51.4555 30.8549 51.5804 30.869L58.856 30.8268C59.117 30.7864 59.0212 30.6155 58.9724 30.5488L58.9715 30.5498Z" fill="white"/>
<path d="M18.4344 15.7226L21.0737 12.2515C21.2689 11.9952 21.5196 11.8243 21.7891 11.7352C21.9027 11.6882 22.0266 11.6619 22.16 11.661H22.2022C22.2351 11.6591 22.2679 11.6591 22.3008 11.66L32.0588 11.5896C33.0174 11.5831 33.4183 12.8121 32.64 13.3716L24.7185 19.0698C24.6922 19.0904 24.6649 19.1092 24.6377 19.128L24.6039 19.1524C24.4959 19.2294 24.3795 19.282 24.2603 19.3111C23.9899 19.3975 23.6866 19.4078 23.3777 19.3158L19.1996 18.0689C18.1959 17.7694 17.8006 16.5583 18.4344 15.7245V15.7226Z" fill="#F77461"/>
<path d="M18.8786 18.7687L22.9985 20.1977C23.3027 20.3038 23.543 20.4887 23.712 20.7169C23.7918 20.8098 23.8557 20.9197 23.8979 21.0455L23.9111 21.0849C23.9223 21.1159 23.9336 21.1478 23.943 21.1788L27.0433 30.4316C27.3475 31.3405 26.3043 32.1038 25.5307 31.5386L17.6524 25.7803C17.6251 25.7615 17.5979 25.7418 17.5716 25.7212L17.5378 25.6968C17.4308 25.6188 17.3453 25.524 17.2806 25.4198C17.1144 25.1898 17.0102 24.9053 17.0017 24.5832L16.8881 20.2239C16.8609 19.1761 17.889 18.425 18.8786 18.7677V18.7687Z" fill="#CF64BB"/>
<path d="M78.0545 11.3746H72.6014C72.5319 11.3859 72.4793 11.445 72.4793 11.5173V11.8694H72.4755V22.5127C72.4755 22.5615 72.4746 22.6103 72.4727 22.6582C72.4727 22.6723 72.4718 22.6855 72.4709 22.6986C72.468 22.7437 72.4652 22.7887 72.4605 22.8329C72.4577 22.8601 72.4549 22.8883 72.4511 22.9155C72.4408 22.9981 72.4286 23.0789 72.4126 23.1596V23.1615C72.4042 23.2037 72.3948 23.246 72.3854 23.2882C72.3826 23.2986 72.3807 23.3089 72.3779 23.3183C72.3779 23.3183 72.3779 23.3192 72.3779 23.3202C72.3676 23.3615 72.3563 23.4028 72.3441 23.4441C72.3441 23.4441 72.3441 23.4441 72.3441 23.445C72.3403 23.4582 72.3366 23.4704 72.3328 23.4835C72.3206 23.522 72.3084 23.5605 72.2953 23.5981C72.2727 23.6638 72.2483 23.7276 72.222 23.7915C72.2173 23.8027 72.2127 23.8149 72.207 23.8262C72.207 23.8272 72.2061 23.8281 72.2051 23.829C72.2004 23.8403 72.1948 23.8525 72.1901 23.8638C72.1901 23.8638 72.1901 23.8638 72.1901 23.8647C72.1854 23.876 72.1798 23.8872 72.1751 23.8985C72.1751 23.8985 72.1751 23.9004 72.1742 23.9013C72.1685 23.9126 72.1638 23.9239 72.1582 23.9361C72.1582 23.9361 72.1582 23.937 72.1582 23.9379C72.1526 23.9492 72.1469 23.9605 72.1422 23.9717C72.1366 23.983 72.131 23.9943 72.1253 24.0055C72.1253 24.0065 72.1244 24.0084 72.1235 24.0093C72.1178 24.0196 72.1131 24.03 72.1075 24.0403C72.1075 24.0412 72.1066 24.0422 72.1056 24.044C72.1 24.0553 72.0944 24.0656 72.0887 24.076C72.0887 24.076 72.0887 24.0769 72.0878 24.0778C72.0821 24.0882 72.0765 24.0985 72.0709 24.1088C72.0709 24.1088 72.0709 24.1088 72.0709 24.1098C72.0568 24.1342 72.0437 24.1595 72.0296 24.1839C72.0296 24.1858 72.0277 24.1868 72.0268 24.1886C72.0221 24.1961 72.0174 24.2046 72.0127 24.2121C72.0127 24.2121 72.0127 24.2121 72.0127 24.213C71.9995 24.2356 71.9864 24.2572 71.9723 24.2788C71.9723 24.2788 71.9723 24.2797 71.9714 24.2806C71.962 24.2957 71.9526 24.3097 71.9432 24.3238C71.9432 24.3238 71.9423 24.3257 71.9413 24.3257C71.9122 24.3708 71.8812 24.4149 71.8502 24.4581C71.8502 24.4581 71.8502 24.4581 71.8502 24.459C71.8502 24.459 71.8502 24.46 71.8493 24.4609C71.8427 24.4694 71.8362 24.4787 71.8296 24.4872C71.8296 24.4872 71.8296 24.4872 71.8296 24.4881C71.8296 24.4881 71.8286 24.49 71.8277 24.49C71.8211 24.4985 71.8155 24.5069 71.8089 24.5154C71.808 24.5172 71.8061 24.5182 71.8052 24.5201C71.7986 24.5285 71.793 24.536 71.7864 24.5445L71.7826 24.5492C71.7761 24.5576 71.7695 24.5661 71.7629 24.5745C71.7629 24.5745 71.761 24.5764 71.761 24.5773C71.7348 24.6102 71.7085 24.6421 71.6812 24.674C71.6812 24.674 71.6812 24.675 71.6803 24.6759C71.6737 24.6834 71.6672 24.6909 71.6606 24.6985C71.6606 24.6985 71.6606 24.6984 71.6596 24.6994C71.639 24.7229 71.6183 24.7463 71.5967 24.7689C71.5967 24.7689 71.5958 24.7698 71.5949 24.7707C71.5864 24.7792 71.5789 24.7886 71.5705 24.797C71.5695 24.798 71.5676 24.7999 71.5667 24.8008C71.5592 24.8092 71.5507 24.8177 71.5432 24.8252C71.5423 24.8261 71.5413 24.8271 71.5404 24.828C71.5329 24.8355 71.5254 24.843 71.5179 24.8506C71.516 24.8524 71.5132 24.8552 71.5113 24.8571C71.5038 24.8646 71.4963 24.8721 71.4888 24.8797C71.4869 24.8815 71.485 24.8834 71.4841 24.8843C71.4775 24.8909 71.47 24.8984 71.4634 24.905C71.4625 24.9059 71.4615 24.9069 71.4606 24.9078C71.4437 24.9247 71.4259 24.9407 71.409 24.9566C71.4061 24.9595 71.4024 24.9623 71.3986 24.966C71.3921 24.9717 71.3855 24.9782 71.3789 24.9839C71.3761 24.9867 71.3723 24.9895 71.3695 24.9923C71.3611 24.9998 71.3536 25.0064 71.3451 25.0139C71.3451 25.0139 71.3442 25.0149 71.3432 25.0158C71.3348 25.0233 71.3263 25.0308 71.3179 25.0374C71.3179 25.0374 71.316 25.0393 71.3151 25.0393C71.3132 25.0402 71.3123 25.0421 71.3104 25.043C71.3038 25.0487 71.2972 25.0543 71.2907 25.0599C71.2869 25.0627 71.2841 25.0656 71.2803 25.0684C71.2522 25.0918 71.224 25.1144 71.1949 25.1369C71.1921 25.1388 71.1902 25.1407 71.1874 25.1425C71.1799 25.1482 71.1724 25.1538 71.1648 25.1604C71.162 25.1623 71.1592 25.1641 71.1564 25.167C71.1479 25.1735 71.1404 25.1792 71.132 25.1848C71.131 25.1848 71.1301 25.1867 71.1292 25.1867C71.1273 25.1876 71.1264 25.1886 71.1245 25.1904C71.1179 25.1951 71.1113 25.1998 71.1048 25.2045C71.1048 25.2045 71.1029 25.2055 71.1019 25.2064C71.1019 25.2064 71.101 25.2064 71.1001 25.2073C71.0907 25.2139 71.0813 25.2205 71.0719 25.227C71.0719 25.227 71.071 25.227 71.07 25.228C71.0597 25.2355 71.0494 25.2421 71.039 25.2496C71.0353 25.2524 71.0306 25.2552 71.0268 25.258C71.0184 25.2637 71.0099 25.2693 71.0015 25.2749C71.0005 25.2749 70.9987 25.2768 70.9977 25.2777C70.9893 25.2834 70.9818 25.2881 70.9733 25.2937C70.9686 25.2965 70.9649 25.2993 70.9602 25.3022C70.9536 25.3069 70.947 25.3106 70.9404 25.3153C70.9386 25.3153 70.9376 25.3172 70.9358 25.3181C70.9245 25.3247 70.9142 25.3322 70.9029 25.3388C70.8991 25.3407 70.8954 25.3435 70.8926 25.3453C70.8841 25.351 70.8747 25.3557 70.8663 25.3613C70.8635 25.3632 70.8606 25.3641 70.8588 25.366C70.8522 25.3698 70.8456 25.3735 70.839 25.3773C70.8362 25.3791 70.8334 25.3801 70.8306 25.382C70.8221 25.3867 70.8137 25.3923 70.8052 25.397C70.8006 25.3998 70.7959 25.4026 70.7912 25.4045C70.7827 25.4092 70.7743 25.4139 70.7649 25.4195C70.7649 25.4195 70.7649 25.4195 70.7639 25.4195C70.7621 25.4205 70.7602 25.4214 70.7583 25.4223C70.7489 25.427 70.7405 25.4327 70.7311 25.4374C70.7292 25.4374 70.7283 25.4392 70.7264 25.4402C70.7264 25.4402 70.7264 25.4402 70.7254 25.4402C70.7029 25.4524 70.6794 25.4646 70.6569 25.4759H70.6541C70.6419 25.4834 70.6297 25.489 70.6175 25.4956C70.6165 25.4956 70.6146 25.4965 70.6137 25.4974C70.6015 25.5031 70.5893 25.5097 70.5762 25.5153C70.5762 25.5153 70.5743 25.5153 70.5733 25.5162C70.5602 25.5228 70.547 25.5284 70.5339 25.5341C70.533 25.5341 70.532 25.535 70.5311 25.5359C70.5311 25.5359 70.5311 25.5359 70.5301 25.5359C70.5217 25.5397 70.5132 25.5435 70.5048 25.5472C70.4992 25.55 70.4935 25.5528 70.487 25.5547C70.4813 25.5575 70.4748 25.5594 70.4691 25.5622C70.4691 25.5622 70.4672 25.5622 70.4663 25.5632C70.4541 25.5679 70.4428 25.5735 70.4306 25.5782H70.4287C70.4175 25.5829 70.4053 25.5876 70.394 25.5923H70.3931C70.3818 25.597 70.3696 25.6017 70.3583 25.6064C70.3518 25.6092 70.3452 25.6111 70.3386 25.6139C70.332 25.6167 70.3255 25.6186 70.318 25.6214C70.3142 25.6223 70.3114 25.6242 70.3076 25.6251C70.2992 25.628 70.2907 25.6308 70.2832 25.6345C70.2766 25.6373 70.2701 25.6392 70.2635 25.642C70.2569 25.6439 70.2513 25.6467 70.2447 25.6486C70.241 25.6495 70.2372 25.6514 70.2335 25.6524C70.2081 25.6608 70.1828 25.6693 70.1565 25.6777C70.1565 25.6777 70.1565 25.6777 70.1555 25.6777C70.1471 25.6805 70.1386 25.6833 70.1292 25.6862C70.1227 25.688 70.1161 25.6899 70.1095 25.6918C70.1039 25.6937 70.0973 25.6956 70.0917 25.6974C70.0898 25.6974 70.0879 25.6984 70.087 25.6993C70.086 25.6993 70.0842 25.6993 70.0832 25.7002C70.0701 25.704 70.0579 25.7078 70.0447 25.7115C70.0429 25.7115 70.041 25.7125 70.0391 25.7134C70.0363 25.7134 70.0344 25.7143 70.0316 25.7153C70.0241 25.7171 70.0156 25.72 70.0072 25.7218C70.0044 25.7218 70.0015 25.7237 69.9987 25.7237C69.9903 25.7256 69.9818 25.7284 69.9734 25.7303C69.9706 25.7303 69.9668 25.7322 69.964 25.7322C69.9499 25.7359 69.9349 25.7397 69.9208 25.7425C69.918 25.7425 69.9161 25.7434 69.9133 25.7444C69.9067 25.7463 69.9001 25.7472 69.8945 25.7491C69.8908 25.7491 69.887 25.751 69.8832 25.7519C69.8814 25.7519 69.8795 25.7519 69.8776 25.7528C69.8701 25.7547 69.8626 25.7566 69.8551 25.7575C69.8551 25.7575 69.8541 25.7575 69.8532 25.7575C69.8532 25.7575 69.8513 25.7575 69.8504 25.7575C69.8382 25.7603 69.8269 25.7622 69.8147 25.765C69.8072 25.7669 69.8006 25.7678 69.7931 25.7697C69.7809 25.7725 69.7687 25.7744 69.7565 25.7763H69.7546C69.7424 25.7782 69.7302 25.781 69.718 25.7829C69.7161 25.7829 69.7142 25.7829 69.7133 25.7829C69.703 25.7847 69.6926 25.7866 69.6833 25.7876C69.6814 25.7876 69.6795 25.7876 69.6786 25.7876C69.6767 25.7876 69.6748 25.7876 69.6729 25.7876C69.6598 25.7894 69.6466 25.7913 69.6335 25.7932C69.6241 25.7941 69.6147 25.796 69.6063 25.797C69.6034 25.797 69.6006 25.797 69.5978 25.7979C69.5894 25.7988 69.5809 25.7998 69.5725 25.8007C69.5725 25.8007 69.5687 25.8007 69.5678 25.8007C69.5621 25.8007 69.5574 25.8016 69.5518 25.8026C69.5415 25.8035 69.5312 25.8054 69.5208 25.8063C69.5171 25.8063 69.5133 25.8063 69.5086 25.8073C69.503 25.8073 69.4964 25.8082 69.4908 25.8092C69.4898 25.8092 69.488 25.8092 69.487 25.8092C69.4833 25.8092 69.4805 25.8092 69.4767 25.8101C69.4598 25.812 69.4429 25.8129 69.4251 25.8148C69.4232 25.8148 69.4213 25.8148 69.4194 25.8148C69.4129 25.8148 69.4053 25.8157 69.3988 25.8167C69.3913 25.8167 69.3847 25.8176 69.3772 25.8186C69.3734 25.8186 69.3687 25.8186 69.365 25.8186C69.3556 25.8186 69.3462 25.8195 69.3368 25.8204C69.3321 25.8204 69.3274 25.8204 69.3227 25.8204C69.319 25.8204 69.3152 25.8204 69.3115 25.8204C69.3086 25.8204 69.3068 25.8204 69.3039 25.8204C69.2955 25.8204 69.288 25.8204 69.2795 25.8214C69.2767 25.8214 69.2739 25.8214 69.272 25.8214C69.2701 25.8214 69.2683 25.8214 69.2664 25.8214C69.2514 25.8214 69.2354 25.8214 69.2204 25.8223C69.2147 25.8223 69.2091 25.8223 69.2035 25.8223C69.1978 25.8223 69.1932 25.8223 69.1875 25.8223C69.1753 25.8223 69.1631 25.8223 69.1518 25.8223C69.1378 25.8223 69.1237 25.8223 69.1096 25.8223C69.1021 25.8223 69.0955 25.8223 69.088 25.8223C69.0814 25.8223 69.0749 25.8223 69.0683 25.8223C69.057 25.8223 69.0448 25.8223 69.0335 25.8214C69.0317 25.8214 69.0288 25.8214 69.027 25.8214C69.0138 25.8214 69.0007 25.8204 68.9875 25.8195H68.9857C68.9303 25.8167 68.8758 25.8129 68.8213 25.8073C67.1341 25.6411 65.6817 24.2177 65.6817 22.4864V11.8872V11.4901C65.6817 11.4178 65.6291 11.3586 65.5596 11.3474H60.144C60.0745 11.3586 60.022 11.4178 60.022 11.4901V20.2359C60.022 20.2406 60.022 20.2453 60.022 20.25V23.0854C60.022 24.5886 60.1994 25.8805 60.5534 26.9593C60.5534 26.9612 60.5543 26.9631 60.5553 26.964H60.5534C60.6539 27.2372 60.7665 27.4935 60.8886 27.732C61.3101 28.5648 61.9392 29.3854 62.8772 30.0041C63.848 30.6745 64.7756 30.913 65.1164 30.9825V30.9853C65.6 31.082 66.0967 31.1318 66.6027 31.1318C70.2738 31.2294 71.9723 29.5967 72.5488 28.8624L72.6671 30.3637L72.6877 30.6416C72.6877 30.6895 72.715 30.7355 72.7535 30.7665L72.7553 30.7834H72.7807C72.8023 30.7947 72.8258 30.8013 72.8492 30.8013H72.8999H72.9995H76.8349V30.7994H77.9737C78.0911 30.7994 78.1859 30.7046 78.1859 30.5872V30.0689V20.2716C78.1888 20.2594 78.1906 20.2472 78.1906 20.234V11.4891C78.1906 11.4169 78.1381 11.3568 78.0686 11.3464L78.0545 11.3746ZM72.5385 28.885C72.5385 28.885 72.5385 28.884 72.5394 28.8831V28.885H72.5385Z" fill="white"/>
<path d="M49.4744 11.3745C49.4115 11.3886 49.3636 11.4327 49.3392 11.4862L48.9664 12.0721L43.9396 19.9494L43.8203 23.351L44.2607 22.7361V25.7706L55.4477 13.964C55.4533 13.9593 55.458 13.9546 55.4636 13.9499L57.671 11.6177C57.7583 11.5257 57.6926 11.3745 57.5668 11.3745" fill="white"/>
</svg>
