<?xml version="1.0" encoding="UTF-8"?>
<svg id="logo-engie-blue" xmlns="http://www.w3.org/2000/svg" version="1.1" viewBox="0 0 319.13 113.38">
  <!-- Generator: Adobe Illustrator 29.1.0, SVG Export Plug-In . SVG Version: 2.1.0 Build 142)  -->
  <defs>
    <style>
      .st0, .st1 {
        fill: #0af;
      }

      .st1 {
        fill-rule: evenodd;
      }
    </style>
  </defs>
  <path class="st1" d="M295,47.4664c-36.2937-24.2326-83.6384-38.8909-135.4307-38.8909S60.4237,23.2339,24.13,47.4664c36.0985-12.0017,78.2996-19.4455,135.4392-19.4455s99.3408,7.4438,135.4307,19.4455Z"/>
  <path class="st0" d="M138.7997,60.0623c-2.6652,0-4.0317,2.1559-4.3797,4.7956-.3904,2.9198-1.9267,13.0287-2.2662,15.592-.2037,1.5448-.314,3.149-1.8079,3.811s-3.3102-.3565-4.855-1.6976l-24.4787-20.812c-1.2607-1.0983-2.8774-1.7016-4.5494-1.6976-3.463,0-6.7902,2.1474-6.7902,7.4013v32.5506c-.1313,2.1617,1.5147,4.0206,3.6764,4.1518.0844.0051.1689.0075.2534.0072,2.2216.0597,4.0944-1.6446,4.2439-3.8619,0,0,2.5463-15.5071,2.8264-17.2386.3565-2.0116.6705-3.5903,2.6142-4.193,1.757-.5432,3.3951.4753,5.8905,2.6397s23.0867,20.778,23.0867,20.778c1.3248,1.29,3.1271,1.9697,4.9738,1.8758,2.0286,0,5.7123-.8488,5.7123-7.0279v-32.4233c.0085-3.0047-1.8843-4.6513-4.1505-4.6513Z"/>
  <path class="st0" d="M286.4952,94.7518c-17.9856,3.8704-38.5769-.2631-38.5769-12.9948,0-9.6166,8.9206-13.5295,15.9485-14.0982,7.3759-.5857,13.1391.9591,16.1268,4.0402,1.8503,1.9267,1.3326,4.5494-2.3087,4.7616-3.3442.2037-9.6336.3989-14.8621.5941-2.9707.1103-4.5579,1.6976-4.5579,3.845,0,1.6976,1.2732,3.6328,4.6937,3.6497,4.8974,0,17.332.1019,23.5026.1188,4.0826,0,6.0857-2.2747,6.0857-6.9685,0-7.4268-6.7308-18.6731-26.4309-18.6731-17.8243,0-30.7597,8.8952-30.7597,23.4262,0,20.6083,30.3268,26.8977,52.5477,19.2418,2.105-.7215,4.0147-2.2408,3.3951-4.5919-.5432-2.1135-2.2492-2.9028-4.8041-2.3511Z"/>
  <path class="st0" d="M77.7727,94.7518c-17.9941,3.8704-38.5769-.2631-38.5769-12.9948,0-9.6166,8.9122-13.5295,15.9485-14.0982,7.3674-.5857,13.1306.9591,16.1268,4.0402,1.8503,1.9267,1.3326,4.5494-2.3002,4.7616-3.3527.2037-9.6421.3989-14.8706.5941-2.9707.1103-4.5579,1.6976-4.5579,3.845,0,1.6976,1.2732,3.6328,4.6937,3.6497,4.8974,0,17.3405.1019,23.5111.1188,4.0741,0,6.0857-2.2747,6.0857-6.9685,0-7.4268-6.7393-18.6731-26.4394-18.6731-17.8243,0-30.7597,8.8952-30.7597,23.4262,0,20.6083,30.3268,26.8977,52.5562,19.2418,2.105-.7215,4.0147-2.2408,3.3951-4.5919-.5517-2.1135-2.2577-2.9028-4.8126-2.3511Z"/>
  <path class="st0" d="M217.1163,74.9328c.3989,11.2378,1.4599,20.5574,1.757,23.8252.3819,4.2439,2.5463,5.4152,4.7447,5.4152s4.3288-1.0949,4.7107-5.3812c.3565-3.5988,1.392-14.6753,1.9097-25.7094.0653-.355-.1696-.6957-.5246-.761-.1082-.0199-.2197-.0122-.3242.0225l-11.7131,1.8928c-.3288.0688-.5633.3601-.5602.696Z"/>
  <path class="st0" d="M223.6519,59.0013c-3.5696-.2249-6.6456,2.4866-6.8705,6.0562-.0154.2444-.0169.4895-.0046.734,0,.4838.0594,1.8079.1358,3.463.0218.3979.3619.7027.7598.681.0299-.0016.0596-.0051.089-.0104l12.2224-1.9861c.333-.0526.582-.3337.5941-.6705,0-.5772,0-1.1628.0509-1.4429.1478-3.6252-2.6712-6.6839-6.2964-6.8317-.2268-.0092-.4539-.0067-.6805.0075Z"/>
  <path class="st0" d="M205.6918,76.919c-4.0741,0-16.653.1019-24.6994.1188-3.9044,0-4.8805,2.105-4.8805,3.845,0,1.5108,1.0525,3.463,4.6937,3.6497,5.5425.2886,12.6043.6196,15.8636.7894,4.3882.2207,4.4476,2.4784,2.9622,4.4136-2.9792,3.8704-10.2278,6.4083-17.7394,6.4083-9.8288,0-20.6422-5.5849-20.6422-14.4292,0-8.318,9.2602-17.4763,36.752-13.5804,2.419.3395,4.7956-.0934,5.3897-2.3341.6366-2.3766-.9167-3.9044-4.0402-4.7277-5.6664-1.4523-11.5-2.1487-17.349-2.071-18.5118,0-33.3484,8.8358-33.3484,23.1122,0,15.278,14.7857,22.6963,33.2211,22.6963,20.5828,0,30.6069-11.2038,30.6069-20.9987.017-4.9823-2.5209-6.8921-6.7902-6.8921Z"/>
</svg>