<svg xmlns="http://www.w3.org/2000/svg" width="566.929" height="175.158" xml:space="preserve"><path fill="#FD0" d="M566.926 0v125.113H0V0h566.926z"/><path fill="#D50029" d="M99.699 22.467 81.586 47.076h98.717c4.99 0 4.924 1.897 2.486 5.201-2.477 3.354-6.622 9.187-9.145 12.593-1.281 1.729-3.595 4.879 4.075 4.879h40.369s6.507-8.855 11.961-16.257c7.421-10.07.643-31.024-25.884-31.024l-104.466-.001z"/><path fill="#D50029" d="m74.258 102.638 36.381-49.433 45.147.001c4.99 0 4.924 1.896 2.486 5.2-2.477 3.354-6.691 9.125-9.213 12.532-1.281 1.729-3.595 4.884 4.075 4.884h60.481c-5.029 6.891-21.345 26.815-50.642 26.815l-88.715.001zM282.612 75.816l-19.729 26.822h-52.042s19.717-26.815 19.735-26.815l52.036-.007zM362.339 69.749H235.048l34.808-47.282h52.027l-19.951 27.112h23.223l19.959-27.112h52.022l-34.797 47.282zM357.871 75.822l-19.739 26.815H286.11s19.718-26.815 19.734-26.815h52.027zM0 86.396h76.667l-4.188 5.698H0v-5.698zM0 75.822h84.457l-4.196 5.69H0v-5.69zM0 96.977h68.883l-4.169 5.661H0v-5.661zM566.929 92.094h-76.372l4.19-5.697h72.182v5.697zM566.929 102.638l-84.137.008 4.167-5.669h79.97v5.661zM502.526 75.822h64.403v5.692l-68.589.005 4.186-5.697zM469.188 22.467l-34.803 47.281h-55.128s34.812-47.281 34.828-47.281h55.103zM374.794 75.822c.001 0-3.802 5.198-5.65 7.695-6.535 8.831-.757 19.12 20.568 19.12h83.553L493 75.822H374.794z"/><path fill="#FD0" d="M0 145.372h566.908v2.835H0v-2.835zM0 158.601h566.908v2.835H0v-2.835zM0 171.818h566.908v2.835H0v-2.835z"/><path fill="#D50029" d="M85.15 146.336c-1.861-.84-3.322-1.469-7.679-1.469-9.098 0-20.166 5.999-26.787 15.02-6.837 9.314-4.932 15.271 4.508 15.271 4.656 0 8.029-.755 10.053-1.301l11.18-15.229h-10.55l-2.526 3.44h6.279l-6.529 8.895c-1.222.21-2.207.503-5.154.503-6.193 0-7.876-4.572-2.826-11.453 4.805-6.545 12.979-11.453 19.855-11.453 3.844 0 5.616.671 6.723 2.014l3.453-4.238zM72.771 174.655h16.743l2.711-3.692H79.752l18.787-25.593h-4.271l-21.497 29.285z"/><path fill-rule="evenodd" clip-rule="evenodd" fill="#D50029" d="M105.499 160.013c4.374-5.957 11.686-11.495 18.232-11.453 6.609-.042 5.79 5.496 1.417 11.453-4.281 5.832-11.355 11.453-18.232 11.453s-5.698-5.621-1.417-11.453zm-4.527 0c-6.53 8.895-5.865 15.146 3.233 15.146s18.941-6.251 25.47-15.146c6.375-8.685 5.822-15.146-3.233-15.146s-19.095 6.461-25.47 15.146zM125.323 174.655h7.945c6.065 0 12.471-1.511 17.091-7.804 3.018-4.112 2.066-6.713-1.746-7.049l.062-.084c4.437-.923 8.307-2.937 11.264-6.964 3.973-5.412 1.149-7.385-5.044-7.385h-8.073l-21.499 29.286zm14.066-13.342h2.776c3.674 0 7.27.629 3.943 5.16-2.895 3.943-6.94 4.741-10.785 4.741h-3.204l7.27-9.901zm9.177-12.502h4.485c2.478 0 4.863.881 2.307 4.363-3.172 4.321-6.952 4.699-11.095 4.699h-2.349l6.652-9.062zM148.968 174.655h4.485l8.454-7.385h14.608l-2.388 7.385h4.656l8.897-29.285h-4.485l-34.227 29.285zm28.705-10.824h-11.875l16.594-14.517-4.719 14.517z"/><path fill="#D50029" d="M183.646 174.655h16.745l2.71-3.692h-12.473l18.788-25.593h-4.271l-21.499 29.285zM217.85 174.655h4.272l9.794-13.342h11.063l2.71-3.692h-11.063l6.283-8.558h11.575l2.711-3.693h-15.847l-21.498 29.285z"/><path fill-rule="evenodd" clip-rule="evenodd" fill="#D50029" d="M253.801 160.013c4.374-5.957 11.686-11.495 18.233-11.453 6.609-.042 5.79 5.496 1.416 11.453-4.281 5.832-11.355 11.453-18.232 11.453s-5.698-5.621-1.417-11.453zm-4.528 0c-6.53 8.895-5.865 15.146 3.233 15.146s18.941-6.251 25.47-15.146c6.375-8.685 5.822-15.146-3.233-15.146s-19.095 6.461-25.47 15.146zM273.625 174.655h4.271l9.547-13.007h2.563c2.264 0 3.673 0 2.903 2.854l-2.883 10.153h4.869l2.924-11.664c.385-1.804.206-2.434-.749-2.937l.062-.084c3.892-.587 8.431-3.104 11.048-6.671 5.144-7.006.141-7.93-5.754-7.93h-7.305l-21.496 29.286zm23.059-25.592h4.101c3.93 0 4.748 1.679 2.808 4.321-2.063 2.811-5.749 4.573-9.807 4.573h-3.631l6.529-8.894z"/><path fill="#D50029" d="M305.855 174.655h5.724l25.322-25.592h.086l-12.295 25.592h5.51l30.682-29.285h-4.529l-25.55 25.089h-.086l11.969-25.089h-6.066l-24.782 25.089h-.086l11.285-25.089h-4.699l-12.485 29.285z"/><path fill-rule="evenodd" clip-rule="evenodd" fill="#D50029" d="M339.814 174.655h4.485l8.453-7.385h14.608l-2.389 7.385h4.656l8.897-29.285h-4.485l-34.225 29.285zm28.706-10.824h-11.874l16.594-14.517-4.72 14.517zM374.28 174.655h4.271l9.548-13.007h2.563c2.264 0 3.673 0 2.903 2.854l-2.884 10.153h4.87l2.924-11.664c.385-1.804.206-2.434-.749-2.937l.062-.084c3.892-.587 8.43-3.104 11.048-6.671 5.144-7.006.141-7.93-5.754-7.93h-7.305l-21.497 29.286zm23.059-25.592h4.101c3.93 0 4.748 1.679 2.808 4.321-2.063 2.811-5.749 4.573-9.808 4.573h-3.63l6.529-8.894zM400.958 174.655h8.799c9.824 0 19.616-5.077 26.823-14.895 6.621-9.02 3.516-14.391-5.326-14.391h-8.799l-21.497 29.286zm23.059-25.592h4.997c6.151 0 7.936 4.027 2.915 10.866-5.544 7.552-12.158 11.034-19.504 11.034h-4.485l16.077-21.9z"/><path fill="#D50029" d="M432.646 174.655h4.272l21.497-29.285h-4.271l-21.498 29.285zM445.064 174.655h4.272l17.679-24.082h.086l-4.181 24.082h5.467l21.498-29.285h-4.272l-17.309 23.579h-.085l4.153-23.579h-5.809l-21.499 29.285zM520.31 146.336c-1.861-.84-3.321-1.469-7.678-1.469-9.099 0-20.166 5.999-26.788 15.02-6.837 9.314-4.932 15.271 4.508 15.271 4.656 0 8.03-.755 10.054-1.301l11.18-15.229h-10.551l-2.525 3.44h6.279l-6.529 8.895c-1.223.21-2.207.503-5.154.503-6.193 0-7.876-4.572-2.825-11.453 4.805-6.545 12.979-11.453 19.855-11.453 3.845 0 5.615.671 6.723 2.014l3.451-4.238z"/></svg>