<svg width="500" height="343" viewBox="0 0 500 343" fill="none" xmlns="http://www.w3.org/2000/svg">
<path d="M487.58 1H12.4196C5.56044 1 0 6.56044 0 13.4196V329.487C0 336.346 5.56044 341.906 12.4196 341.906H487.58C494.44 341.906 500 336.346 500 329.487V13.4196C500 6.56044 494.44 1 487.58 1Z" fill="white"/>
<path d="M311.396 168.807C311.403 167.725 310.84 166.709 309.919 166.146H309.905L309.846 166.117L261.761 137.652C261.557 137.513 261.337 137.382 261.118 137.265C259.261 136.307 257.054 136.307 255.197 137.265C254.978 137.382 254.759 137.506 254.554 137.652L206.469 166.117L206.411 166.146C204.941 167.06 204.488 168.99 205.402 170.459C205.672 170.89 206.045 171.256 206.484 171.512L254.568 199.977C254.78 200.115 254.992 200.247 255.212 200.364C257.068 201.322 259.276 201.322 261.133 200.364C261.352 200.247 261.571 200.115 261.776 199.977L309.861 171.512C310.818 170.949 311.411 169.918 311.396 168.807V168.807Z" fill="#0A2767"/>
<path d="M212.068 149.801H243.625V178.727H212.068V149.801ZM304.941 120.401V107.17C305.014 103.858 302.397 101.117 299.093 101.037H217.207C213.896 101.117 211.279 103.858 211.359 107.17V120.401L259.766 133.31L304.948 120.401H304.941Z" fill="#0364B7"/>
<path d="M211.353 120.4H243.626V149.443H211.353V120.4Z" fill="#0078D3"/>
<path d="M275.892 120.4H243.618V149.443L275.892 178.485H304.934V149.443L275.892 120.4Z" fill="#28A7E9"/>
<path d="M243.625 149.443H275.898V178.486H243.625V149.443Z" fill="#0078D3"/>
<path d="M243.625 178.485H275.898V207.528H243.625V178.485V178.485Z" fill="#0364B7"/>
<path d="M212.068 178.727H243.625V205.02H212.068V178.727V178.727Z" fill="#14447D"/>
<path d="M275.892 178.485H304.934V207.528H275.892V178.485V178.485Z" fill="#0078D3"/>
<path d="M309.919 171.329L309.861 171.358L261.776 198.405C261.564 198.537 261.352 198.654 261.133 198.763C260.314 199.151 259.43 199.37 258.523 199.407L255.899 197.871C255.68 197.762 255.46 197.638 255.256 197.499L206.528 169.684H206.506L204.912 168.792V223.537C204.934 227.192 207.916 230.13 211.571 230.108H304.854C304.912 230.108 304.956 230.079 305.014 230.079C305.789 230.028 306.55 229.874 307.273 229.611C307.588 229.48 307.887 229.319 308.18 229.143C308.399 229.019 308.764 228.756 308.764 228.756C310.417 227.535 311.396 225.598 311.403 223.544V168.8C311.403 169.845 310.84 170.81 309.927 171.329H309.919Z" fill="url(#paint0_linear_1605_113587)"/>
<path opacity="0.5" d="M308.815 168.588V171.943L258.537 206.563L206.483 169.721C206.483 169.721 206.469 169.692 206.454 169.692L201.681 166.819V164.399L203.647 164.37L207.814 166.76L207.909 166.79L208.267 167.016C208.267 167.016 257.192 194.933 257.324 194.999L259.195 196.095C259.356 196.029 259.517 195.964 259.714 195.905C259.809 195.839 308.282 168.573 308.282 168.573L308.83 168.603L308.815 168.588Z" fill="#0A2767"/>
<path d="M309.92 171.329L309.861 171.366L261.777 198.412C261.565 198.544 261.353 198.661 261.133 198.771C259.269 199.684 257.084 199.684 255.212 198.771C254.993 198.661 254.774 198.544 254.569 198.412L206.484 171.366L206.426 171.329C205.497 170.825 204.913 169.86 204.905 168.8V223.544C204.927 227.199 207.91 230.138 211.557 230.116H304.744C308.399 230.138 311.375 227.199 311.396 223.544V168.8C311.396 169.845 310.834 170.81 309.92 171.329V171.329Z" fill="#148FDE"/>
<path opacity="0.1" d="M262.47 198.01L261.754 198.412C261.542 198.544 261.33 198.668 261.111 198.778C260.321 199.165 259.459 199.392 258.574 199.45L276.871 221.088L308.786 228.778C309.663 228.12 310.358 227.25 310.811 226.249L262.478 198.01H262.47Z" fill="black"/>
<path opacity="0.05" d="M265.731 196.175L261.754 198.412C261.542 198.544 261.33 198.668 261.111 198.778C260.321 199.165 259.459 199.392 258.574 199.45L267.149 223.083L308.794 228.763C310.431 227.528 311.403 225.598 311.403 223.551V222.842L265.738 196.175H265.731Z" fill="black"/>
<path d="M211.645 230.123H304.737C306.17 230.123 307.566 229.677 308.721 228.829L255.892 197.886C255.673 197.776 255.454 197.652 255.249 197.513L206.521 169.699H206.499L204.905 168.8V223.361C204.905 227.089 207.924 230.116 211.652 230.116L211.645 230.123Z" fill="#28A7E9"/>
<path opacity="0.1" d="M250.08 132.769V201.607C250.08 204.019 248.604 206.19 246.367 207.097C245.672 207.396 244.927 207.55 244.174 207.55H204.897V130.086H211.352V126.863H244.174C247.434 126.877 250.073 129.516 250.08 132.777V132.769Z" fill="black"/>
<path opacity="0.2" d="M246.849 135.993V204.831C246.857 205.613 246.688 206.38 246.367 207.089C245.468 209.297 243.326 210.744 240.943 210.759H204.897V130.079H240.943C241.878 130.072 242.8 130.306 243.618 130.759C245.599 131.753 246.842 133.778 246.842 136L246.849 135.993Z" fill="black"/>
<path opacity="0.2" d="M246.849 135.993V198.376C246.835 201.636 244.203 204.275 240.943 204.304H204.897V130.079H240.943C241.878 130.072 242.8 130.306 243.618 130.759C245.599 131.753 246.842 133.778 246.842 136L246.849 135.993Z" fill="black"/>
<path opacity="0.2" d="M243.626 135.993V198.376C243.626 201.636 240.987 204.29 237.719 204.304H204.897V130.079H237.719C240.979 130.079 243.626 132.725 243.626 135.993Z" fill="black"/>
<path d="M178.538 130.079H237.704C240.972 130.079 243.618 132.725 243.618 135.993V195.159C243.618 198.427 240.972 201.073 237.704 201.073H178.538C175.27 201.073 172.624 198.427 172.624 195.159V135.993C172.624 132.725 175.27 130.079 178.538 130.079Z" fill="url(#paint1_linear_1605_113587)"/>
<path d="M191.111 154.889C192.565 151.782 194.919 149.18 197.865 147.425C201.125 145.554 204.846 144.626 208.603 144.735C212.09 144.662 215.526 145.539 218.538 147.286C221.374 148.975 223.655 151.453 225.109 154.421C226.695 157.688 227.485 161.278 227.412 164.911C227.492 168.705 226.674 172.462 225.043 175.883C223.552 178.953 221.198 181.519 218.267 183.266C215.138 185.064 211.571 185.971 207.96 185.883C204.4 185.971 200.891 185.079 197.807 183.303C194.948 181.607 192.631 179.129 191.147 176.161C189.554 172.944 188.757 169.392 188.815 165.795C188.75 162.038 189.532 158.31 191.111 154.896V154.889ZM198.311 172.411C199.086 174.377 200.409 176.08 202.112 177.323C203.852 178.536 205.928 179.165 208.048 179.114C210.307 179.202 212.529 178.558 214.386 177.265C216.067 176.022 217.353 174.319 218.077 172.352C218.888 170.159 219.283 167.835 219.254 165.503C219.276 163.142 218.903 160.795 218.143 158.566C217.47 156.548 216.228 154.772 214.568 153.449C212.755 152.104 210.541 151.417 208.282 151.512C206.118 151.453 203.991 152.089 202.207 153.317C200.475 154.567 199.13 156.285 198.333 158.273C196.571 162.827 196.564 167.864 198.304 172.425L198.311 172.411Z" fill="white"/>
<path d="M275.892 120.4H304.934V149.443H275.892V120.4Z" fill="#50D8FF"/>
<defs>
<linearGradient id="paint0_linear_1605_113587" x1="258.143" y1="168.8" x2="258.143" y2="230.123" gradientUnits="userSpaceOnUse">
<stop stop-color="#35B7F0"/>
<stop offset="1" stop-color="#28A7E9"/>
</linearGradient>
<linearGradient id="paint1_linear_1605_113587" x1="184.956" y1="125.452" x2="231.286" y2="205.7" gradientUnits="userSpaceOnUse">
<stop stop-color="#1783D8"/>
<stop offset="0.5" stop-color="#107AD4"/>
<stop offset="1" stop-color="#0A63C8"/>
</linearGradient>
</defs>
</svg>
