<svg fill="none" height="27" viewBox="0 0 39 27" width="39" xmlns="http://www.w3.org/2000/svg"><g fill="#333"><path d="m16.0359 10.5072h-7.28792c-.43206.0084-.42107-.2974-.28914-.5457l3.62026-9.415765c.1155-.301673-.0461-.545735-.3628-.545735h-7.11524c-.31662 0-.66623.244062-.78277.545735l-3.131076 8.143085c-.6200585 1.61098-.6442452 2.36418-.6442452 2.36418v14.6919c0 .3017.2561592.5457.5727852.5457h15.420146c.3166 0 .5728-.244.5728-.5457v-14.6919c0-.3017-.2562-.5458-.5728-.5458z"/><path d="m38.0779 10.5072h-7.2879c-.4321.0084-.4211-.2974-.2892-.5457l3.6203-9.415765c.1155-.301673-.0461-.545735-.3628-.545735h-7.1152c-.3167 0-.6663.244062-.7828.545735l-3.1311 8.143085c-.619 1.61098-.6442 2.36418-.6442 2.36418v14.6919c0 .3017.2561.5457.5727.5457h15.4202c.3166 0 .5728-.244.5728-.5457v-14.6919c0-.3017-.2562-.5458-.5728-.5458z"/></g></svg>