<svg width="500" height="341" viewBox="0 0 500 341" fill="none" xmlns="http://www.w3.org/2000/svg">
<path d="M487.58 0H12.4196C5.56044 0 0 5.56044 0 12.4196V328.487C0 335.346 5.56044 340.906 12.4196 340.906H487.58C494.44 340.906 500 335.346 500 328.487V12.4196C500 5.56044 494.44 0 487.58 0Z" fill="white"/>
<path d="M212.726 184.598C212.726 191.813 206.9 197.639 199.685 197.639C192.471 197.639 186.645 191.813 186.645 184.598C186.645 177.383 192.471 171.557 199.685 171.557H212.726V184.598ZM219.247 184.598C219.247 177.383 225.073 171.557 232.288 171.557C239.503 171.557 245.329 177.383 245.329 184.598V217.2C245.329 224.415 239.503 230.241 232.288 230.241C225.073 230.241 219.247 224.415 219.247 217.2V184.598Z" fill="#DF1E5A"/>
<path d="M232.288 132.237C225.073 132.237 219.247 126.411 219.247 119.196C219.247 111.981 225.073 106.155 232.288 106.155C239.503 106.155 245.329 111.981 245.329 119.196V132.237H232.288ZM232.288 138.853C239.503 138.853 245.329 144.679 245.329 151.894C245.329 159.108 239.503 164.935 232.288 164.935H199.591C192.376 164.935 186.55 159.108 186.55 151.894C186.55 144.679 192.376 138.853 199.591 138.853H232.288Z" fill="#36C4EF"/>
<path d="M284.547 151.9C284.547 144.686 290.373 138.859 297.588 138.859C304.803 138.859 310.629 144.686 310.629 151.9C310.629 159.115 304.803 164.941 297.588 164.941H284.547V151.9ZM278.026 151.9C278.026 159.115 272.2 164.941 264.985 164.941C257.77 164.941 251.944 159.115 251.944 151.9V119.203C251.944 111.988 257.77 106.162 264.985 106.162C272.2 106.162 278.026 111.988 278.026 119.203V151.9Z" fill="#2EB57D"/>
<path d="M264.985 204.159C272.2 204.159 278.026 209.985 278.026 217.2C278.026 224.415 272.2 230.241 264.985 230.241C257.77 230.241 251.944 224.415 251.944 217.2V204.159H264.985ZM264.985 197.639C257.77 197.639 251.944 191.813 251.944 184.598C251.944 177.383 257.77 171.557 264.985 171.557H297.683C304.898 171.557 310.724 177.383 310.724 184.598C310.724 191.813 304.898 197.639 297.683 197.639H264.985Z" fill="#EBB12E"/>
</svg>
