<svg width="500" height="343" viewBox="0 0 500 343" fill="none" xmlns="http://www.w3.org/2000/svg">
<path d="M487.58 1H12.4196C5.56044 1 0 6.56044 0 13.4196V329.487C0 336.346 5.56044 341.906 12.4196 341.906H487.58C494.44 341.906 500 336.346 500 329.487V13.4196C500 6.56044 494.44 1 487.58 1Z" fill="white"/>
<path d="M270.329 149.399H304.905C308.173 149.399 310.819 152.045 310.819 155.313V186.811C310.819 198.821 301.082 208.551 289.079 208.551H288.977C276.967 208.551 267.237 198.821 267.237 186.811V152.491C267.237 150.781 268.619 149.399 270.329 149.399V149.399Z" fill="#5059C8"/>
<path d="M293.707 143.178C301.446 143.178 307.72 136.904 307.72 129.165C307.72 121.426 301.446 115.152 293.707 115.152C285.967 115.152 279.693 121.426 279.693 129.165C279.693 136.904 285.967 143.178 293.707 143.178Z" fill="#5059C8"/>
<path d="M250.118 143.171C261.293 143.171 270.352 134.112 270.352 122.937C270.352 111.762 261.293 102.703 250.118 102.703C238.943 102.703 229.884 111.762 229.884 122.937C229.884 134.112 238.943 143.171 250.118 143.171Z" fill="#7B82EA"/>
<path d="M277.099 149.399H220.023C216.792 149.479 214.24 152.155 214.314 155.386V191.307C213.86 210.678 229.189 226.753 248.561 227.228C267.932 226.753 283.254 210.678 282.808 191.307V155.386C282.881 152.155 280.33 149.479 277.099 149.399V149.399Z" fill="#7B82EA"/>
<path opacity="0.2" d="M245.447 136.417V142.615C239.146 141.124 233.934 136.702 231.434 130.722H239.745C242.888 130.737 245.432 133.281 245.439 136.417H245.447Z" fill="black"/>
<path d="M182.661 130.722H239.737C242.888 130.722 245.446 133.281 245.446 136.431V193.507C245.446 196.658 242.888 199.216 239.737 199.216H182.661C179.511 199.216 176.952 196.658 176.952 193.507V136.431C176.952 133.281 179.511 130.722 182.661 130.722V130.722Z" fill="url(#paint0_linear_1605_110618)"/>
<path d="M226.221 152.447H214.81V183.514H207.544V152.447H196.185V146.417H226.221V152.447Z" fill="white"/>
<defs>
<linearGradient id="paint0_linear_1605_110618" x1="190.702" y1="122.07" x2="235.877" y2="200.311" gradientUnits="userSpaceOnUse">
<stop stop-color="#5A62C2"/>
<stop offset="0.5" stop-color="#4D55BC"/>
<stop offset="1" stop-color="#3940AA"/>
</linearGradient>
</defs>
</svg>
