<svg xmlns="http://www.w3.org/2000/svg" viewBox="0 0 276 318"><path fill="#fff" d="m0 250 138 68 138-68V0H0v250Z"/><path fill="#fff" d="m0 250 138 68 138-68V0H0v250Z"/><path fill="#ff492c" d="M213 0h63v63h-63z"/><path fill="#fff" fill-rule="evenodd" d="M258.15 24.12h-5.38c.15-.84.67-1.31 1.72-1.85l.99-.5c1.77-.91 2.72-1.93 2.72-3.6 0-1.05-.41-1.88-1.22-2.48-.8-.6-1.77-.89-2.89-.89-.9 0-1.71.23-2.46.7-.73.45-1.29 1.04-1.63 1.77l1.56 1.56c.6-1.22 1.48-1.82 2.63-1.82.98 0 1.58.5 1.58 1.2 0 .58-.29 1.07-1.41 1.64l-.63.31c-1.38.7-2.34 1.49-2.9 2.4-.55.89-.83 2.04-.83 3.42v.37h8.15v-2.22ZM257.42 28.92h-8.9l-4.45 7.71h8.9l4.45 7.71 4.45-7.71-4.45-7.71Z"/><path fill="#fff" fill-rule="evenodd" d="M244.82 41.78c-5.67 0-10.29-4.61-10.29-10.28s4.62-10.28 10.29-10.28l3.52-7.37c-1.14-.23-2.32-.35-3.52-.35-9.94 0-18.01 8.06-18.01 17.99s8.06 17.99 18.01 17.99c3.96 0 7.63-1.28 10.6-3.45l-3.9-6.75c-1.8 1.55-4.14 2.49-6.7 2.49Z"/><path fill="#ff492c" d="M0 249.67v-17.9l138 68.42 138-68.18v17.86L138 318 0 249.67Z"/><path fill="#ffc800" d="M0 231.82v-17.9l138 68.42 138-68.18v17.86l-138 68.13L0 231.82Z"/><path fill="#5746b2" d="M0 213.97v-17.9l138 68.42 138-68.18v17.86L138 282.3 0 213.97Z"/><path fill="none" stroke="#000" stroke-width="3" d="M274.5 1.5v247.57L138 316.33 1.5 249.07V1.5h273ZM274.59 61.6H1.87M213.79 2.73V61.6"/><path d="M55.56 159.79v-33.12H43.32v-8.88H77.4v8.88H65.16v33.12h-9.6ZM91.8 160.51c-3.16 0-5.94-.67-8.34-2.01-2.4-1.34-4.29-3.19-5.67-5.55s-2.07-5.08-2.07-8.16.67-5.8 2.01-8.16c1.34-2.36 3.22-4.21 5.64-5.55 2.42-1.34 5.17-2.01 8.25-2.01s5.95.67 8.37 2.01 4.3 3.19 5.64 5.55c1.34 2.36 2.01 5.08 2.01 8.16s-.67 5.8-2.01 8.16c-1.34 2.36-3.21 4.21-5.61 5.55-2.4 1.34-5.14 2.01-8.22 2.01Zm0-8.64c1.2 0 2.27-.3 3.21-.9.94-.6 1.68-1.43 2.22-2.49.54-1.06.81-2.29.81-3.69s-.27-2.63-.81-3.69-1.29-1.89-2.25-2.49c-.96-.6-2.06-.9-3.3-.9s-2.34.3-3.3.9c-.96.6-1.71 1.43-2.25 2.49-.54 1.06-.81 2.29-.81 3.69s.27 2.63.81 3.69 1.3 1.89 2.28 2.49c.98.6 2.11.9 3.39.9ZM112.5 171.79v-42h8.82l.54 5.52v36.48h-9.36Zm17.88-11.28c-2.48 0-4.56-.63-6.24-1.89-1.68-1.26-2.94-3.07-3.78-5.43-.84-2.36-1.26-5.16-1.26-8.4s.42-6.09 1.26-8.43c.84-2.34 2.1-4.14 3.78-5.4 1.68-1.26 3.76-1.89 6.24-1.89 2.8 0 5.22.63 7.26 1.89 2.04 1.26 3.6 3.06 4.68 5.4 1.08 2.34 1.62 5.15 1.62 8.43s-.54 6.04-1.62 8.4c-1.08 2.36-2.64 4.17-4.68 5.43-2.04 1.26-4.46 1.89-7.26 1.89Zm-2.4-8.64c1.2 0 2.26-.3 3.18-.9.92-.6 1.66-1.43 2.22-2.49.56-1.06.84-2.29.84-3.69s-.26-2.63-.78-3.69-1.25-1.89-2.19-2.49c-.94-.6-2.01-.9-3.21-.9s-2.27.3-3.21.9c-.94.6-1.67 1.44-2.19 2.52s-.78 2.3-.78 3.66.26 2.63.78 3.69 1.24 1.89 2.16 2.49c.92.6 1.98.9 3.18.9ZM177.18 160.51c-2.08 0-4.18-.36-6.3-1.08-2.12-.72-4.01-1.76-5.67-3.12-1.66-1.36-2.83-3.04-3.51-5.04l9.12-2.16c.6 1.04 1.41 1.81 2.43 2.31 1.02.5 2.11.75 3.27.75 1.76 0 3.19-.53 4.29-1.59s1.65-2.49 1.65-4.29c0-1.64-.53-3.03-1.59-4.17s-2.51-1.71-4.35-1.71c-1.12 0-2.11.26-2.97.78-.86.52-1.49 1.14-1.89 1.86l-8.7-1.92 2.76-23.34h24.36v8.76h-16.2l-1.2 8.58c1.04-.6 2.22-1.07 3.54-1.41 1.32-.34 2.76-.51 4.32-.51 2.16.04 4.15.6 5.97 1.68 1.82 1.08 3.27 2.55 4.35 4.41s1.62 4.01 1.62 6.45c0 2.92-.66 5.49-1.98 7.71a13.888 13.888 0 0 1-5.4 5.19c-2.28 1.24-4.92 1.86-7.92 1.86ZM214.02 160.51c-3.44 0-6.5-.93-9.18-2.79-2.68-1.86-4.77-4.42-6.27-7.68s-2.25-7.01-2.25-11.25.75-7.99 2.25-11.25 3.58-5.82 6.24-7.68c2.66-1.86 5.71-2.79 9.15-2.79s6.56.93 9.24 2.79c2.68 1.86 4.79 4.42 6.33 7.68s2.31 7.01 2.31 11.25-.76 7.99-2.28 11.25c-1.52 3.26-3.62 5.82-6.3 7.68-2.68 1.86-5.76 2.79-9.24 2.79Zm.06-8.76c1.6 0 3.03-.56 4.29-1.68 1.26-1.12 2.25-2.65 2.97-4.59.72-1.94 1.08-4.17 1.08-6.69s-.36-4.82-1.08-6.78c-.72-1.96-1.72-3.5-3-4.62s-2.74-1.68-4.38-1.68-3.02.56-4.26 1.68c-1.24 1.12-2.21 2.66-2.91 4.62-.7 1.96-1.05 4.22-1.05 6.78s.35 4.76 1.05 6.72c.7 1.96 1.68 3.49 2.94 4.59 1.26 1.1 2.71 1.65 4.35 1.65ZM110.87 95.57v-2.12c0-.41.13-.85.38-1.34s.6-.98 1.05-1.47.97-.95 1.58-1.37l2.23-1.6c.31-.21.6-.45.87-.71.27-.27.5-.56.67-.87.17-.31.26-.62.26-.91 0-.36-.09-.69-.26-.99-.18-.29-.43-.53-.77-.69s-.75-.25-1.24-.25c-.42 0-.79.08-1.12.25-.33.17-.6.39-.81.67-.21.28-.36.58-.44.9l-2.96-.5c.14-.7.44-1.35.9-1.95.46-.6 1.07-1.09 1.82-1.46.75-.37 1.6-.56 2.55-.56 1.09 0 2.03.2 2.81.59s1.39.93 1.82 1.61.64 1.47.64 2.36-.25 1.72-.75 2.42c-.5.71-1.18 1.37-2.05 1.99l-2 1.45c-.41.28-.76.59-1.05.92-.29.34-.52.71-.67 1.11h6.7v2.52h-10.16ZM130.86 95.83c-1.19 0-2.24-.33-3.15-.98-.91-.65-1.62-1.55-2.14-2.69s-.78-2.45-.78-3.94.26-2.8.78-3.94c.52-1.14 1.23-2.04 2.13-2.69s1.95-.98 3.14-.98 2.24.33 3.16.98 1.63 1.55 2.15 2.69.78 2.45.78 3.94-.26 2.8-.78 3.94c-.52 1.14-1.23 2.04-2.14 2.69s-1.96.98-3.15.98Zm0-2.61c.63 0 1.19-.21 1.69-.64.5-.43.89-1.01 1.17-1.76.28-.75.42-1.61.42-2.59s-.14-1.85-.42-2.6c-.28-.76-.67-1.35-1.17-1.77s-1.07-.64-1.71-.64-1.19.21-1.68.64-.87 1.02-1.14 1.77c-.27.76-.41 1.62-.41 2.6s.14 1.85.41 2.59c.27.75.66 1.34 1.15 1.76.5.43 1.06.64 1.69.64ZM140.83 95.57v-2.12c0-.41.13-.85.38-1.34s.6-.98 1.05-1.47.97-.95 1.58-1.37l2.23-1.6c.31-.21.6-.45.87-.71.27-.27.5-.56.67-.87.17-.31.26-.62.26-.91 0-.36-.09-.69-.26-.99-.18-.29-.43-.53-.77-.69s-.75-.25-1.24-.25c-.42 0-.79.08-1.12.25-.33.17-.6.39-.81.67-.21.28-.36.58-.44.9l-2.96-.5c.14-.7.44-1.35.9-1.95.46-.6 1.07-1.09 1.82-1.46.75-.37 1.6-.56 2.55-.56 1.09 0 2.03.2 2.81.59s1.39.93 1.82 1.61.64 1.47.64 2.36-.25 1.72-.75 2.42c-.5.71-1.18 1.37-2.05 1.99l-2 1.45c-.41.28-.76.59-1.05.92-.29.34-.52.71-.67 1.11h6.7v2.52h-10.16ZM160.3 95.83c-.99 0-1.84-.18-2.53-.54-.69-.36-1.26-.85-1.7-1.48-.44-.63-.76-1.36-.97-2.19-.2-.83-.3-1.73-.3-2.7 0-1.12.12-2.18.36-3.18s.6-1.89 1.08-2.66c.48-.77 1.1-1.37 1.86-1.81s1.67-.65 2.73-.65c.77 0 1.52.11 2.26.34.74.22 1.4.55 1.98.97l-1.43 2.1c-.43-.31-.9-.53-1.4-.67-.5-.14-.96-.21-1.38-.21-1.08 0-1.92.48-2.54 1.43s-.91 2.46-.88 4.51l-.57-.4c.32-.77.82-1.39 1.49-1.85.67-.46 1.47-.69 2.39-.69s1.77.22 2.49.65a4.62 4.62 0 0 1 1.7 1.78c.41.75.62 1.58.62 2.51s-.22 1.73-.65 2.45a4.43 4.43 0 0 1-1.84 1.69c-.79.41-1.72.61-2.78.61Zm0-2.44c.46 0 .87-.1 1.24-.31s.65-.5.86-.86c.21-.36.32-.78.32-1.26s-.11-.9-.32-1.27c-.21-.37-.5-.67-.86-.88s-.78-.33-1.24-.33-.88.11-1.25.33-.66.51-.87.88c-.21.37-.32.79-.32 1.27s.11.9.32 1.26c.21.37.5.65.87.86s.79.31 1.25.31ZM98.01 207.18c-1.02 0-1.93-.23-2.72-.7s-1.41-1.1-1.86-1.92c-.45-.81-.67-1.75-.67-2.81s.22-2 .67-2.81c.45-.81 1.07-1.46 1.85-1.92s1.69-.7 2.71-.7c.72 0 1.39.13 2.01.38s1.16.61 1.63 1.07.82.98 1.07 1.57l-1.9.71c-.17-.37-.4-.69-.68-.97-.28-.27-.6-.49-.96-.64-.36-.16-.75-.23-1.17-.23-.61 0-1.15.15-1.63.46-.48.31-.85.72-1.11 1.25s-.4 1.14-.4 1.84.13 1.32.41 1.85c.27.54.64.96 1.12 1.26.48.31 1.03.46 1.65.46.43 0 .82-.08 1.18-.25.35-.17.67-.39.95-.68.27-.29.5-.62.67-1l1.91.69c-.25.61-.61 1.15-1.07 1.62-.46.47-1.01.83-1.63 1.09s-1.29.39-2.02.39ZM104.73 207l4.14-10.5h2.06l-4.02 10.5h-2.17Zm1.95-2.31v-1.82h6.58v1.82h-6.58Zm6.35 2.31-4.02-10.5h2.06l4.14 10.5h-2.17ZM117.96 207v-10.5h2.15l5.13 7.05v-7.05h2.04V207h-2.04l-5.22-7.18V207h-2.06ZM130.04 207l4.14-10.5h2.06l-4.02 10.5h-2.17Zm1.95-2.31v-1.82h6.58v1.82h-6.58Zm6.34 2.31-4.02-10.5h2.06l4.14 10.5h-2.17ZM143.26 207v-10.5h3.36c1.07 0 2.02.22 2.84.67s1.47 1.07 1.93 1.85.7 1.69.7 2.72-.23 1.92-.7 2.71-1.11 1.41-1.93 1.86-1.77.67-2.84.67h-3.36Zm2.06-1.92h1.3c.48 0 .92-.08 1.33-.25s.77-.41 1.07-.71c.31-.3.54-.65.71-1.06s.25-.84.25-1.31-.08-.91-.25-1.31-.41-.76-.71-1.06c-.3-.3-.66-.54-1.07-.71s-.85-.25-1.33-.25h-1.3v6.66ZM155.26 207v-10.5h2.06V207h-2.06ZM160.08 207l4.14-10.5h2.06l-4.02 10.5h-2.17Zm1.95-2.31v-1.82h6.58v1.82h-6.58Zm6.35 2.31-4.02-10.5h2.06l4.14 10.5h-2.17ZM173.31 207v-10.5h2.15l5.13 7.05v-7.05h2.04V207h-2.04l-5.22-7.18V207h-2.06ZM12.51 40.32v-14.7h4.98c1.01 0 1.89.15 2.65.46.76.31 1.34.77 1.76 1.4s.63 1.4.63 2.32c0 .57-.14 1.1-.43 1.58s-.69.9-1.21 1.25c.69.35 1.21.82 1.59 1.4s.56 1.28.56 2.09c0 .9-.2 1.66-.61 2.29-.41.63-.97 1.11-1.7 1.43-.73.32-1.58.48-2.56.48h-5.65Zm2.81-8.72h2.23c.63 0 1.13-.16 1.49-.48.36-.32.55-.78.55-1.36s-.2-1.04-.61-1.37c-.41-.32-.96-.48-1.66-.48h-2v3.7Zm0 6.18h2.56c.69 0 1.23-.17 1.62-.51.39-.34.59-.8.59-1.38s-.22-1.07-.65-1.42c-.43-.34-1.03-.51-1.79-.51h-2.33v3.82ZM27.46 40.32v-14.7h9.3v2.62h-6.43v3.34h5.54v2.56h-5.54v3.55h6.51v2.62h-9.39ZM46.86 40.57c-.74 0-1.44-.09-2.08-.27a6.13 6.13 0 0 1-1.72-.77c-.5-.33-.92-.7-1.25-1.1s-.54-.83-.64-1.28l2.81-.84c.18.48.5.89.97 1.23s1.04.52 1.74.54c.74.01 1.35-.15 1.82-.48.47-.34.7-.77.7-1.3 0-.46-.19-.85-.56-1.17s-.88-.56-1.52-.72l-1.91-.5c-.71-.18-1.34-.46-1.89-.83s-.97-.83-1.28-1.38-.46-1.18-.46-1.91c0-1.39.46-2.47 1.38-3.24s2.21-1.17 3.9-1.17c.94 0 1.76.14 2.47.41.71.27 1.3.66 1.78 1.17.48.5.84 1.1 1.09 1.79l-2.79.86c-.17-.48-.48-.88-.92-1.22-.45-.34-1.02-.5-1.7-.5s-1.25.16-1.65.48c-.4.32-.6.78-.6 1.37 0 .46.16.83.47 1.09.31.27.75.47 1.29.61l1.93.48c1.26.31 2.24.86 2.94 1.66s1.05 1.69 1.05 2.67c0 .87-.21 1.63-.63 2.28-.42.65-1.03 1.16-1.83 1.52-.8.36-1.76.55-2.9.55ZM59.88 40.32V28.24h-4.41v-2.62h11.68v2.62h-4.39v12.08h-2.88ZM83.17 40.57c-.74 0-1.44-.09-2.08-.27a6.13 6.13 0 0 1-1.72-.77c-.5-.33-.92-.7-1.25-1.1s-.54-.83-.64-1.28l2.81-.84c.18.48.5.89.97 1.23s1.04.52 1.74.54c.74.01 1.35-.15 1.82-.48.47-.34.7-.77.7-1.3 0-.46-.19-.85-.56-1.17s-.88-.56-1.52-.72l-1.91-.5c-.71-.18-1.34-.46-1.89-.83s-.97-.83-1.28-1.38-.46-1.18-.46-1.91c0-1.39.46-2.47 1.38-3.24s2.21-1.17 3.9-1.17c.94 0 1.76.14 2.47.41.71.27 1.3.66 1.78 1.17.48.5.84 1.1 1.09 1.79l-2.79.86c-.17-.48-.48-.88-.92-1.22-.45-.34-1.02-.5-1.7-.5s-1.25.16-1.65.48c-.4.32-.6.78-.6 1.37 0 .46.16.83.47 1.09.31.27.75.47 1.29.61l1.93.48c1.26.31 2.24.86 2.94 1.66s1.05 1.69 1.05 2.67c0 .87-.21 1.63-.63 2.28-.42.65-1.03 1.16-1.83 1.52-.8.36-1.76.55-2.9.55ZM99.8 40.57c-1.48 0-2.8-.33-3.94-.98a7.066 7.066 0 0 1-2.68-2.69c-.64-1.14-.97-2.45-.97-3.92s.32-2.82.97-3.96a6.988 6.988 0 0 1 2.66-2.68c1.13-.64 2.43-.97 3.9-.97s2.79.33 3.92.98c1.13.65 2.01 1.55 2.66 2.69.64 1.14.97 2.45.97 3.94s-.32 2.78-.96 3.92a6.989 6.989 0 0 1-2.65 2.69c-1.13.65-2.42.98-3.87.98Zm0-2.62c.9 0 1.68-.21 2.36-.64.68-.43 1.21-1.01 1.6-1.75s.58-1.6.58-2.56-.2-1.84-.59-2.58c-.39-.74-.93-1.33-1.62-1.75-.69-.43-1.48-.64-2.39-.64s-1.67.21-2.36.64-1.24 1.01-1.63 1.75c-.39.74-.59 1.6-.59 2.58s.2 1.82.59 2.56.94 1.33 1.64 1.75c.7.43 1.5.64 2.42.64ZM111.71 40.32v-14.7h9.43v2.62h-6.55v3.53h5.46v2.62h-5.46v5.92h-2.88ZM128.55 40.32V28.24h-4.41v-2.62h11.68v2.62h-4.39v12.08h-2.88ZM142.73 40.32l-4.35-14.7h2.92l4.18 14.7h-2.75Zm.37 0 4.01-14.7h2.6l-3.99 14.7h-2.62Zm8.21 0-3.95-14.7h2.6l4.1 14.7h-2.75Zm.28 0 4.22-14.7h2.92l-4.39 14.7h-2.75ZM159.74 40.32l5.8-14.7h2.88l-5.63 14.7h-3.04Zm2.73-3.24v-2.54h9.22v2.54h-9.22Zm8.88 3.24-5.63-14.7h2.88l5.8 14.7h-3.04ZM178.26 40.32v-14.7h5.46c1.04 0 1.95.2 2.75.61s1.42.96 1.87 1.67.67 1.53.67 2.47-.23 1.75-.7 2.47c-.47.72-1.11 1.28-1.92 1.68-.81.4-1.74.6-2.77.6h-2.48v5.21h-2.88Zm2.87-7.83h2.6c.43 0 .82-.09 1.17-.27s.62-.43.82-.76.3-.69.3-1.09c0-.63-.23-1.14-.68-1.53-.46-.39-1.04-.59-1.75-.59h-2.46v4.24Zm5.21 7.83-3.4-5.9 2.21-1.58 4.45 7.48h-3.25ZM193.9 40.32v-14.7h9.3v2.62h-6.43v3.34h5.54v2.56h-5.54v3.55h6.51v2.62h-9.39Z"/></svg>