<?xml version="1.0" encoding="utf-8"?>
<!-- Generator: Adobe Illustrator 28.0.0, SVG Export Plug-In . SVG Version: 6.00 Build 0)  -->
<svg version="1.1" id="Layer_1" xmlns="http://www.w3.org/2000/svg" xmlns:xlink="http://www.w3.org/1999/xlink" x="0px" y="0px"
	 viewBox="0 0 500 252" style="enable-background:new 0 0 500 252;" xml:space="preserve">
<style type="text/css">
	.st0{fill:#005151;}
	.st1{fill:#30CEBB;}
</style>
<g>
	<path class="st0" d="M282.8,164.6c-2.2,0-4.5-0.9-6.2-2.6l-35.2-36l35.2-36c1.7-1.7,4-2.6,6.2-2.6c4.9,0,8.6,4,8.6,8.6
		c0,2.2-0.8,4.4-2.5,6.1L265.6,126l23.4,23.9c1.7,1.7,2.5,3.9,2.5,6.1C291.4,160.6,287.7,164.6,282.8,164.6z"/>
	<path class="st0" d="M231.5,164.6c-4.8,0-8.7-3.9-8.7-8.7V96c0-4.8,3.9-8.7,8.7-8.7c4.8,0,8.7,3.9,8.7,8.7V156
		C240.1,160.8,236.2,164.6,231.5,164.6z"/>
	<path class="st0" d="M339.9,164.6c-22.4,0-39.5-15.1-39.5-38.6c0-21.1,14.8-38.6,39.5-38.6c7.1,0,14.6,1.8,20.6,5.4
		c2.7,1.6,4.2,4.5,4.2,7.4c0,4.5-3.6,8.6-8.6,8.6c-1.5,0-3.1-0.4-4.5-1.2c-3.3-1.8-7.3-3.2-11.6-3.2c-13.6,0-22,9.3-22,21.6
		c0,13.1,9.2,21.5,22,21.5c4.6,0,10-1.7,13.5-4.1v-7.9h-5.8c-4.8,0-8.7-3.9-8.7-8.7s3.9-8.7,8.7-8.7h14.4c4.8,0,8.7,3.9,8.7,8.7
		v19.9c0,2.6-1.1,5.1-2.9,6.9C360.7,160.7,350.7,164.6,339.9,164.6z"/>
	<circle class="st1" cx="138.3" cy="96.5" r="9.1"/>
	<circle class="st1" cx="194.3" cy="96.5" r="9.1"/>
	<path class="st0" d="M166.3,164.6c-20.2,0-36.6-16.4-36.6-36.6v-5.8c0-4.8,3.9-8.7,8.7-8.7s8.7,3.9,8.7,8.7v6.1
		c0,10.7,6.3,19.3,19.3,19.3c12.2,0,19.3-8.7,19.3-19.3v-6.1c0-4.8,3.9-8.7,8.7-8.7s8.7,3.9,8.7,8.7v5.8
		C202.9,148.2,186.5,164.6,166.3,164.6z"/>
</g>
</svg>
